<svg viewBox="0 0 270 261" fill="none" xmlns="http://www.w3.org/2000/svg">
  <g transform='translate(0,35)'>
    <g id='sky' transform='translate(-300, 0)'>
      <path d="M36.66 222.89C36.0831 222.839 35.5496 222.563 35.1752 222.121C34.8008 221.679 34.6156 221.107 34.66 220.53L48.32 27.36C49.42 11.87 43.52 5.44 39.57 2.89C39.3464 2.73907 39.1732 2.52462 39.0726 2.27431C38.9721 2.02399 38.9488 1.74929 39.0058 1.48562C39.0629 1.22196 39.1976 0.981439 39.3926 0.795066C39.5876 0.608692 39.834 0.485015 40.1 0.439994C48.52 -0.900007 67.7 -0.900002 65.52 29.29L51.95 221.77C51.899 222.345 51.6241 222.877 51.1845 223.251C50.7448 223.625 50.1758 223.812 49.6 223.77L36.66 222.89Z" fill="white"/>
      <path d="M70.02 223.27C69.7311 223.266 69.4458 223.205 69.1803 223.091C68.9149 222.977 68.6746 222.812 68.4731 222.604C68.2716 222.397 68.1128 222.153 68.0059 221.884C67.899 221.616 67.846 221.329 67.85 221.04L70.09 27.41C70.28 11.88 64.02 5.8 59.93 3.5C59.7003 3.36125 59.5171 3.15717 59.4039 2.91384C59.2907 2.6705 59.2526 2.39895 59.2944 2.13385C59.3363 1.86876 59.4562 1.62216 59.6389 1.42554C59.8216 1.22892 60.0587 1.09121 60.32 1.03C68.68 -0.870004 87.81 -1.97 87.47 28.31L85.22 221.24C85.2174 221.529 85.1579 221.814 85.0449 222.08C84.9319 222.346 84.7677 222.587 84.5615 222.79C84.3554 222.992 84.1114 223.152 83.8434 223.26C83.5755 223.368 83.2889 223.423 83 223.42L70.02 223.27Z" fill="white"/>

      <animateTransform
        attributeName='transform'
        type='translate'
        values='-300, 0; 0, 0'
        keySplines='1,.21,.63,.99'
        calcMode='spline'
        dur='0.3s'
        repeatCount='1'
        begin='windowScale.end'
        fill='freeze'
      />
    </g>

    <path style='opacity: 0' transform='translate(30;70) scale(0.5, 0.5)' d="M220.52 120.53H203.39C198.74 120.509 194.286 118.648 191.004 115.354C187.721 112.06 185.875 107.601 185.87 102.95V65.1C185.875 60.4495 187.721 55.9901 191.004 52.696C194.286 49.402 198.74 47.5411 203.39 47.52H220.52C225.169 47.5438 229.619 49.4058 232.9 52.6995C236.181 55.9933 238.025 60.4512 238.03 65.1V102.93C238.027 107.581 236.185 112.043 232.904 115.34C229.623 118.638 225.171 120.504 220.52 120.53Z" stroke="white" stroke-width="2">

      <animateTransform
        id='window_translate'
        attributeName='transform'
        type='translate'
        values='30, 70; 0, 0'
        dur='0.6s'
        begin='2.5s'
      />
      <animateTransform
        id='windowScale'
        attributeName='transform'
        type='scale'
        values='.5 .5; 1 1'
        dur='0.6s'
        begin='window_translate.begin'
        additive='sum'
      />
      <animate
        attributeName='opacity'
        attributeType='CSS'
        values='0; 1'
        begin='window_translate.begin'
        dur='0.5s'
        fill='freeze'
        id='showWindow'
      />

    </path>
    <g transform='translate(-300, 0)'>
      <path d="M203.02 154.92H142.28V140.73H197.37C199.999 140.735 202.519 141.784 204.375 143.646C206.231 145.508 207.273 148.031 207.27 150.66C207.267 151.786 206.819 152.866 206.022 153.662C205.226 154.459 204.146 154.907 203.02 154.91" fill="#A67EE5"/>
      <path d="M203.02 154.92H142.28V140.73H197.37C199.999 140.735 202.519 141.784 204.375 143.646C206.231 145.508 207.273 148.031 207.27 150.66C207.27 151.788 206.823 152.87 206.026 153.669C205.229 154.467 204.148 154.917 203.02 154.92Z" stroke="white" stroke-width="2" stroke-miterlimit="10"/>
      <path d="M130.99 223.41H117.02L110.71 181.82H124.68L130.99 223.41Z" fill="#A67EE5"/>
      <path d="M130.99 223.41H117.02L110.71 181.82H124.68L130.99 223.41Z" stroke="white" stroke-width="2" stroke-miterlimit="10"/>
      <path d="M180.54 223.41H166.58L160.28 181.82H174.24L180.54 223.41Z" fill="#A67EE5"/>
      <path d="M180.54 223.41H166.58L160.28 181.82H174.24L180.54 223.41Z" stroke="white" stroke-width="2" stroke-miterlimit="10"/>
      <path d="M226.85 167.55H170.96C169.619 167.55 168.323 167.068 167.308 166.193C166.293 165.317 165.627 164.106 165.43 162.78L154.57 90.54C157.455 88.1506 159.509 84.9078 160.435 81.2777C161.361 77.6477 161.112 73.8174 159.724 70.3377C158.336 66.8581 155.88 63.9082 152.71 61.9123C149.539 59.9164 145.818 58.9773 142.08 59.23H87L86.68 162.1L102.45 185.45L149.64 193.84C150.992 194.335 152.42 194.589 153.86 194.59H226.86C230.448 194.59 233.89 193.165 236.427 190.627C238.965 188.09 240.39 184.648 240.39 181.06C240.39 177.472 238.965 174.03 236.427 171.493C233.89 168.955 230.448 167.53 226.86 167.53" fill="#A67EE5"/>
      <path d="M226.85 167.55H170.96C169.619 167.55 168.323 167.068 167.308 166.193C166.293 165.317 165.627 164.106 165.43 162.78L154.57 90.54C157.455 88.1506 159.509 84.9078 160.435 81.2777C161.361 77.6477 161.112 73.8174 159.724 70.3377C158.336 66.8581 155.88 63.9082 152.71 61.9123C149.539 59.9164 145.818 58.9773 142.08 59.23H87L86.68 162.1L102.45 185.45L149.64 193.84C150.992 194.335 152.42 194.589 153.86 194.59H226.86C230.356 194.454 233.663 192.97 236.088 190.448C238.512 187.926 239.866 184.564 239.865 181.065C239.864 177.567 238.507 174.205 236.081 171.685C233.654 169.165 230.346 167.683 226.85 167.55V167.55Z" stroke="white" stroke-width="2" stroke-miterlimit="10"/>
      <path d="M107.94 162.79L97.08 90.55C99.3794 88.6474 101.161 86.1946 102.258 83.4194C103.356 80.6441 103.735 77.6365 103.359 74.6758C102.983 71.715 101.866 68.8973 100.109 66.4842C98.3533 64.0711 96.0158 62.141 93.314 60.873C90.6123 59.6051 87.634 59.0405 84.6557 59.2316C81.6773 59.4228 78.7956 60.3635 76.2781 61.9664C73.7607 63.5693 71.6891 65.7825 70.2558 68.4002C68.8226 71.018 68.0741 73.9555 68.08 76.94C68.0824 78.7194 68.3486 80.4887 68.87 82.19L84.17 184.1C84.6059 187.028 86.078 189.702 88.3187 191.636C90.5594 193.57 93.4199 194.636 96.38 194.64H169.38C172.903 194.544 176.25 193.077 178.709 190.551C181.167 188.025 182.542 184.64 182.542 181.115C182.542 177.59 181.167 174.205 178.709 171.679C176.25 169.153 172.903 167.686 169.38 167.59H113.47C112.13 167.584 110.836 167.098 109.822 166.222C108.808 165.345 108.14 164.135 107.94 162.81" fill="#A67EE5"/>
      <path d="M107.94 162.79L97.08 90.55C99.3794 88.6474 101.161 86.1946 102.258 83.4194C103.356 80.6441 103.735 77.6365 103.359 74.6758C102.983 71.715 101.866 68.8973 100.109 66.4842C98.3533 64.0711 96.0158 62.141 93.314 60.873C90.6123 59.6051 87.634 59.0405 84.6557 59.2316C81.6773 59.4228 78.7956 60.3635 76.2781 61.9664C73.7607 63.5693 71.6891 65.7825 70.2558 68.4002C68.8226 71.018 68.0741 73.9555 68.08 76.94C68.0824 78.7194 68.3486 80.4887 68.87 82.19L84.17 184.1C84.6059 187.028 86.078 189.702 88.3187 191.636C90.5594 193.57 93.4199 194.636 96.38 194.64H169.38C172.903 194.544 176.25 193.077 178.709 190.551C181.167 188.025 182.542 184.64 182.542 181.115C182.542 177.59 181.167 174.205 178.709 171.679C176.25 169.153 172.903 167.686 169.38 167.59H113.47C112.127 167.583 110.83 167.095 109.816 166.214C108.801 165.334 108.136 164.119 107.94 162.79Z" stroke="white" stroke-width="2" stroke-miterlimit="10"/>
      <path d="M151.78 154.92H79.78L77.65 140.73H146.12C148.749 140.735 151.269 141.784 153.125 143.646C154.981 145.508 156.023 148.031 156.02 150.66C156.017 151.786 155.569 152.866 154.772 153.662C153.976 154.459 152.896 154.907 151.77 154.91" fill="#A67EE5"/>
      <path d="M151.78 154.92H79.78L77.65 140.73H146.12C148.749 140.735 151.269 141.784 153.125 143.646C154.981 145.508 156.023 148.031 156.02 150.66C156.02 151.786 155.574 152.867 154.779 153.665C153.985 154.464 152.906 154.915 151.78 154.92Z" stroke="white" stroke-width="2" stroke-miterlimit="10"/>
      <path d="M97.08 90.54H154.57" stroke="white" stroke-width="2" stroke-miterlimit="10" stroke-linecap="round"/>
      <g style='transform-origin: 100% 100%'>
        <path d="M24.7 89.1C30.9461 97.416 36.1796 106.446 40.29 116C33.126 108.564 26.4204 100.699 20.21 92.45C14.0083 84.1719 8.30814 75.5298 3.14001 66.57C11.1934 73.1998 18.4308 80.7628 24.7 89.1Z" fill="#36E69A"/>
        <path d="M26.46 109.49C34.8583 115.376 42.5139 122.256 49.26 129.98C40.3277 125.287 31.6975 120.04 23.42 114.27C15.2248 108.539 7.40235 102.294 0 95.57C9.36658 99.0871 18.2558 103.763 26.46 109.49Z" fill="#36E69A"/>
        <path d="M39.18 100.58C41.9474 110.57 45.3135 120.384 49.26 129.97C49.0195 119.65 47.5081 109.4 44.76 99.45C41.9065 89.1983 37.8588 79.3173 32.7 70.01C34.2426 80.3204 36.4032 90.5287 39.17 100.58" fill="#36E69A"/>
        <path d="M52.84 108.62C52.8972 118.876 53.5852 129.119 54.9 139.29C57.418 129.472 58.6815 119.375 58.66 109.24C58.5952 98.6637 57.2521 88.134 54.66 77.88C53.3739 88.0756 52.7493 98.3437 52.79 108.62" fill="#25B774"/>
        <path d="M28.6 124.66C37.9342 128.436 46.7648 133.353 54.89 139.3C45.3121 136.853 35.9053 133.779 26.73 130.1C17.6774 126.439 8.86931 122.2 0.359985 117.41C10.0508 118.616 19.5458 121.066 28.61 124.7" fill="#25B774"/>
        <path d="M33.58 138.93C43.2006 141.477 52.4606 145.23 61.14 150.1C51.4284 148.903 41.8119 147.032 32.36 144.5C23.0257 141.993 13.866 138.877 4.94 135.17C14.6095 135.193 24.2368 136.447 33.59 138.9" fill="#25B774"/>
        <path d="M64.23 119.89C62.5529 129.897 61.5175 140.001 61.13 150.14C65.2762 141.042 68.2403 131.451 69.95 121.6C71.6999 111.301 72.1768 100.826 71.37 90.41C68.2921 100.055 65.9027 109.907 64.22 119.89" fill="#25B774"/>
        <path d="M44.38 157.1C53.8869 160.057 62.9822 164.203 71.45 169.44C61.7948 167.837 52.2621 165.568 42.92 162.65C33.701 159.761 24.6817 156.27 15.92 152.2C25.5759 152.621 35.1392 154.267 44.38 157.1Z" fill="#068E4D"/>
        <path d="M75.79 139.39C73.6993 149.32 72.2496 159.374 71.45 169.49C75.9739 160.57 79.3347 151.106 81.45 141.33C83.6246 131.114 84.5348 120.669 84.16 110.23C80.6884 119.74 77.8948 129.485 75.8 139.39" fill="#068E4D"/>
        <path d="M54.42 175.79C63.7988 179.144 72.7162 183.67 80.96 189.26C71.3778 187.244 61.9455 184.571 52.73 181.26C43.6372 177.986 34.7683 174.121 26.18 169.69C35.8133 170.509 45.3031 172.552 54.42 175.77" fill="#068E4D"/>
        <path d="M86.52 159.36C84.0193 169.196 82.1554 179.184 80.94 189.26C85.8223 180.529 89.5693 171.21 92.09 161.53C94.6927 151.4 96.0362 140.988 96.09 130.53C92.2219 139.901 89.0238 149.536 86.52 159.36Z" fill="#068E4D"/>
        <path d="M38.14 112.77C61.355 147.189 80.4396 184.22 95 223.1" stroke="#36E69A" stroke-width="2" stroke-linecap="round" stroke-linejoin="round"/>


        <animateTransform
          attributeName='transform'
          type='skewX'
          values='0; 8; -6; 5; -4; 3; -2; 1; -1; 0'
          keySplines='0 0 0.8 1;
                0 0 0.8 1;
                0 0 0.59 1;
                0 0 0.8 1;
                0 0 0.59 1;
                0 0 0.8 1;
                0 0 0.59 1;
                0 0 0.8 1;
                0 0 0.59 1'
          calcMode='spline'
          begin='show.end - 0.8s'
          dur='3s'
        />
      </g>

      <animateTransform
        id='show'
        attributeName='transform'
        type='translate'
        values='-300, 0; 0, 0'
        keySplines='1,.21,.63,.99'
        calcMode='spline'
        dur='0.3s'
        begin='windowScale.end - 0.1s'
        fill='freeze'
      />
    </g>
    <path d="M17.55 224.1H241.04" stroke="white" stroke-width="2" stroke-miterlimit="10" stroke-linecap="round"/>

<!--    <g fill='url(#clip0)'>
      <path d="M28.18 108.34H91.09" stroke="white" stroke-width="2" stroke-miterlimit="10" stroke-linecap="round"/>
      <path d="M1 98.08H36.29C36.29 94.7913 37.5964 91.6373 39.9219 89.3119C42.2473 86.9864 45.4013 85.68 48.69 85.68C51.9787 85.68 55.1327 86.9864 57.4581 89.3119C59.7836 91.6373 61.09 94.7913 61.09 98.08H79.02" stroke="white" stroke-width="2" stroke-miterlimit="10" stroke-linecap="round"/>
      <path d="M218.19 93.72H257.97" stroke="white" stroke-width="2" stroke-miterlimit="10" stroke-linecap="round"/>
      <path d="M237.98 83.45H210.62C210.62 80.1613 209.314 77.0073 206.988 74.6819C204.663 72.3564 201.509 71.05 198.22 71.05C194.931 71.05 191.777 72.3564 189.452 74.6819C187.126 77.0073 185.82 80.1613 185.82 83.45H167.88" stroke="white" stroke-width="2" stroke-miterlimit="10" stroke-linecap="round"/>
    </g> -->
      <defs>
        <clipPath id="window" transform="translate(0 0)" clipPathUnits="userSpaceOnUse">
          <path d="M220.52 120.53H203.39C198.74 120.509 194.286 118.648 191.004 115.354C187.721 112.06 185.875 107.601 185.87 102.95V65.1C185.875 60.4495 187.721 55.9901 191.004 52.696C194.286 49.402 198.74 47.5411 203.39 47.52H220.52C225.169 47.5438 229.619 49.4058 232.9 52.6995C236.181 55.9933 238.025 60.4512 238.03 65.1V102.93C238.027 107.581 236.185 112.043 232.904 115.34C229.623 118.638 225.171 120.504 220.52 120.53Z"/>
        </clipPath>
      </defs>
      <g clip-path='url(#window)'>
        <g id='clouds' transform="translate(300 0)">
          <path d="M28.18 108.34H91.09" stroke="white" stroke-width="2" stroke-miterlimit="10" stroke-linecap="round"/>
          <path d="M1 98.08H36.29C36.29 94.7913 37.5964 91.6373 39.9219 89.3119C42.2473 86.9864 45.4013 85.68 48.69 85.68C51.9787 85.68 55.1327 86.9864 57.4581 89.3119C59.7836 91.6373 61.09 94.7913 61.09 98.08H79.02" stroke="white" stroke-width="2" stroke-miterlimit="10" stroke-linecap="round"/>
          <path d="M218.19 93.72H257.97" stroke="white" stroke-width="2" stroke-miterlimit="10" stroke-linecap="round"/>
          <path d="M237.98 83.45H210.62C210.62 80.1613 209.314 77.0073 206.988 74.6819C204.663 72.3564 201.509 71.05 198.22 71.05C194.931 71.05 191.777 72.3564 189.452 74.6819C187.126 77.0073 185.82 80.1613 185.82 83.45H167.88" stroke="white" stroke-width="2" stroke-miterlimit="10" stroke-linecap="round"/>
      </g>

        <animateTransform
          href='#clouds'
        attributeName='transform'
        type='translate'
        to='-100,0'
        dur='2.2s'
        repeatCount='indefinite'
        begin='show.end + 0.3s'
        />
      </g>
  </g>


  <g id='dirigable' transform='translate(0,0)'>
    <g id='window'>
      <path d="M134.67 179.82H183.03C186.093 179.818 189.061 178.756 191.431 176.815C193.8 174.874 195.425 172.173 196.03 169.17L199.77 150.85H131.59V176.74C131.593 177.556 131.918 178.338 132.495 178.915C133.072 179.492 133.854 179.817 134.67 179.82V179.82Z" stroke="white" stroke-width="2" stroke-linecap="round" stroke-linejoin="round"/>
      <path d="M195.02 172.23H185.8C183.601 172.222 181.495 171.343 179.943 169.785C178.391 168.228 177.52 166.119 177.52 163.92V150.85" stroke="white" stroke-width="2" stroke-miterlimit="10" stroke-linecap="round"/>
      <!--window-->
      <path id='window-2' d="M163.48 162.42H161.43C160.518 162.425 159.646 162.791 159.003 163.438C158.361 164.084 158 164.958 158 165.87V168.79C158 169.702 158.361 170.576 159.003 171.222C159.646 171.869 160.518 172.235 161.43 172.24H163.48C164.392 172.235 165.264 171.869 165.907 171.222C166.549 170.576 166.91 169.702 166.91 168.79V165.87C166.911 165.418 166.824 164.971 166.652 164.553C166.48 164.135 166.228 163.755 165.91 163.435C165.591 163.114 165.213 162.86 164.796 162.686C164.379 162.512 163.932 162.421 163.48 162.42V162.42Z" stroke="white" stroke-width="2" stroke-linecap="round" stroke-linejoin="round">
        <animate
          attributeName='d'
          values='M163.48 162.42H161.43C160.518 162.425 159.646 162.791 159.003 163.438C158.361 164.084 158 164.958 158 165.87V168.79C158 169.702 158.361 170.576 159.003 171.222C159.646 171.869 160.518 172.235 161.43 172.24H163.48C164.392 172.235 165.264 171.869 165.907 171.222C166.549 170.576 166.91 169.702 166.91 168.79V165.87C166.911 165.418 166.824 164.971 166.652 164.553C166.48 164.135 166.228 163.755 165.91 163.435C165.591 163.114 165.213 162.86 164.796 162.686C164.379 162.512 163.932 162.421 163.48 162.42V162.42Z;
          M181.982 104H170.018C164.698 104.039 159.607 106.759 155.856 111.564C152.105 116.369 150 122.87 150 129.647V151.353C150 158.13 152.105 164.631 155.856 169.436C159.607 174.241 164.698 176.961 170.018 177H181.982C187.302 176.961 192.393 174.241 196.144 169.436C199.895 164.631 202 158.13 202 151.353V129.647C202.008 126.288 201.496 122.961 200.494 119.855C199.492 116.748 198.02 113.924 196.161 111.542C194.302 109.161 192.093 107.269 189.66 105.975C187.228 104.681 184.618 104.01 181.982 104V104Z'
          dur='0.5s'
          begin='4s'
          fill='freeze'
        />
        <animateTransform
          id='window2'
          attributeName='transform'
          type='translate'
          values='0,0; 35, -20'
          dur='0.5s'
          additive='sum'
          begin='2.5s'
          fill='freeze'
        />
      </path>
      <path d="M144.87 162.42H142.82C141.908 162.425 141.036 162.791 140.393 163.438C139.751 164.084 139.39 164.958 139.39 165.87V168.79C139.39 169.702 139.751 170.576 140.393 171.222C141.036 171.869 141.908 172.235 142.82 172.24H144.87C145.782 172.235 146.654 171.869 147.297 171.222C147.939 170.576 148.3 169.702 148.3 168.79V165.87C148.3 164.958 147.939 164.084 147.297 163.438C146.654 162.791 145.782 162.425 144.87 162.42V162.42Z" stroke="white" stroke-width="2" stroke-linecap="round" stroke-linejoin="round"/>

      <animateTransform
        attributeName='transform'
        type='scale'
        values='.98,.98; 1,1; .98,.98'
        keySplines='.5,.38,.39,.93;
              .5,.38,.39,.93'
        calcMode='spline'
        dur='2s'
        repeatCount='5'
      />

      <animateTransform
        attributeName='transform'
        type='skewX'
        values='0; -1; 0'
        additive='sum'
        dur='2s'
        repeatCount='5'
      />
    </g>
    <path d="M164.23 157.62C207.61 157.62 239.09 142.07 239.09 120.62C239.09 99.17 207.61 83.62 164.23 83.62C136.29 83.62 108.87 97.15 90.77 108.49C88.7227 109.778 87.0354 111.563 85.8659 113.68C84.6965 115.797 84.0831 118.176 84.0831 120.595C84.0831 123.014 84.6965 125.393 85.8659 127.51C87.0354 129.627 88.7227 131.412 90.77 132.7C108.86 144.03 136.29 157.57 164.23 157.57" fill="#068E4D"/>
    <path d="M164.23 157.62C207.61 157.62 239.09 142.07 239.09 120.62C239.09 99.17 207.61 83.62 164.23 83.62C136.29 83.62 108.87 97.15 90.77 108.49C88.7227 109.778 87.0354 111.563 85.8659 113.68C84.6965 115.797 84.0831 118.176 84.0831 120.595C84.0831 123.014 84.6965 125.393 85.8659 127.51C87.0354 129.627 88.7227 131.412 90.77 132.7C108.86 144.08 136.29 157.62 164.23 157.62Z" stroke="white" stroke-width="2"/>
    <path d="M164.23 106.63C136 106.63 108.16 112.39 91.42 116.63C87.47 117.63 85.42 119.29 85.34 120.97C85.2584 118.699 85.7765 116.448 86.8421 114.441C87.9077 112.434 89.4832 110.744 91.41 109.54C108.15 99.04 135.99 84.86 164.22 84.86C209.03 84.86 237.86 100.86 237.86 120.61C237.86 120.73 237.86 120.85 237.86 120.98C237.49 113.03 208.76 106.61 164.23 106.61" fill="#36E69A"/>
    <path d="M91.41 125.66C108.15 129.93 135.99 135.66 164.22 135.66C208.36 135.66 236.97 129.34 237.82 121.48C236.96 140.82 208.37 156.34 164.22 156.34C135.99 156.34 108.15 142.15 91.41 131.66C89.6701 130.565 88.2175 129.07 87.1737 127.299C86.1299 125.528 85.5251 123.533 85.41 121.48C85.67 123.09 87.67 124.66 91.41 125.62" fill="#068E4D"/>

    <path d="M91.41 116.66C108.15 112.39 135.99 106.66 164.22 106.66C208.75 106.66 237.48 113.09 237.83 121.04C237.83 121.21 237.83 121.38 237.83 121.55C236.98 129.41 208.38 135.72 164.23 135.72C136 135.72 108.16 129.96 91.42 125.72C87.63 124.72 85.63 123.19 85.42 121.59V121.08C85.55 119.39 87.57 117.72 91.52 116.71" fill="#25B774">
      <animate
        attributeName='d'
        values='M91.41 116.66C108.15 112.39 135.99 106.66 164.22 106.66C208.75 106.66 237.48 113.09 237.83 121.04C237.83 121.21 237.83 121.38 237.83 121.55C236.98 129.41 208.38 135.72 164.23 135.72C136 135.72 108.16 129.96 91.42 125.72C87.63 124.72 85.63 123.19 85.42 121.59V121.08C85.55 119.39 87.57 117.72 91.52 116.71;

        M91.41 116.66C108.15 112.39 135.27 102 163.5 102C208.03 102 237.48 113.09 237.83 121.04C237.83 121.21 237.83 121.38 237.83 121.55C236.98 129.41 207.65 131.5 163.5 131.5C135.27 131.5 108.16 129.96 91.42 125.72C87.63 124.72 85.63 123.19 85.42 121.59V121.08C85.55 119.39 87.57 117.72 91.52 116.71;

        M91.41 116.66C108.15 112.39 135.99 106.66 164.22 106.66C208.75 106.66 237.48 113.09 237.83 121.04C237.83 121.21 237.83 121.38 237.83 121.55C236.98 129.41 208.38 135.72 164.23 135.72C136 135.72 108.16 129.96 91.42 125.72C87.63 124.72 85.63 123.19 85.42 121.59V121.08C85.55 119.39 87.57 117.72 91.52 116.71'
        keySplines='.5,.38,.39,.93;
              .5,.38,.39,.93'
        calcMode='spline'
        dur='2s'
        repeatCount='5'
        restart='whenNotActive'
      />
    </path>

    <g transform='translate(0,-2)'>
      <path d="M82.46 103.88H91.62C92.0529 103.88 92.4815 103.965 92.8813 104.131C93.2812 104.297 93.6443 104.541 93.9499 104.847C94.2556 105.154 94.4977 105.518 94.6624 105.918C94.8272 106.318 94.9113 106.747 94.91 107.18V112.89C94.9113 113.323 94.8272 113.752 94.6624 114.152C94.4977 114.552 94.2556 114.916 93.9499 115.223C93.6443 115.529 93.2812 115.773 92.8813 115.939C92.4815 116.105 92.0529 116.19 91.62 116.19H74.8C74.4499 116.19 74.1142 116.051 73.8666 115.803C73.6191 115.556 73.48 115.22 73.48 114.87V112.87C73.48 110.483 74.4282 108.194 76.1161 106.506C77.8039 104.818 80.0931 103.87 82.48 103.87" fill="#068E4D"/>
      <path d="M82.46 103.88H91.62C92.0529 103.88 92.4815 103.965 92.8813 104.131C93.2812 104.297 93.6443 104.541 93.9499 104.847C94.2556 105.154 94.4977 105.518 94.6624 105.918C94.8272 106.318 94.9113 106.747 94.91 107.18V112.89C94.9113 113.323 94.8272 113.752 94.6624 114.152C94.4977 114.552 94.2556 114.916 93.9499 115.223C93.6443 115.529 93.2812 115.773 92.8813 115.939C92.4815 116.105 92.0529 116.19 91.62 116.19H74.8C74.4499 116.19 74.1142 116.051 73.8666 115.803C73.6191 115.556 73.48 115.22 73.48 114.87V112.87C73.4827 110.488 74.4293 108.205 76.1125 106.52C77.7957 104.834 80.0783 103.885 82.46 103.88V103.88Z" stroke="white" stroke-width="2" stroke-linecap="round" stroke-linejoin="round"/>

      <path d="M82.46 137.93H91.62C92.0529 137.93 92.4815 137.845 92.8813 137.679C93.2812 137.513 93.6443 137.269 93.9499 136.963C94.2556 136.656 94.4977 136.292 94.6624 135.892C94.8272 135.492 94.9113 135.063 94.91 134.63V128.92C94.9113 128.487 94.8272 128.058 94.6624 127.658C94.4977 127.258 94.2556 126.894 93.9499 126.587C93.6443 126.281 93.2812 126.037 92.8813 125.871C92.4815 125.705 92.0529 125.62 91.62 125.62H74.8C74.4499 125.62 74.1142 125.759 73.8666 126.007C73.6191 126.254 73.48 126.59 73.48 126.94V128.94C73.48 131.327 74.4282 133.616 76.1161 135.304C77.8039 136.992 80.0931 137.94 82.48 137.94" fill="#068E4D"/>
      <path d="M82.46 137.93H91.62C92.0529 137.93 92.4815 137.845 92.8813 137.679C93.2812 137.513 93.6443 137.269 93.9499 136.963C94.2556 136.656 94.4977 136.292 94.6624 135.892C94.8272 135.492 94.9113 135.063 94.91 134.63V128.92C94.9113 128.487 94.8272 128.058 94.6624 127.658C94.4977 127.258 94.2556 126.894 93.9499 126.587C93.6443 126.281 93.2812 126.037 92.8813 125.871C92.4815 125.705 92.0529 125.62 91.62 125.62H74.8C74.4499 125.62 74.1142 125.759 73.8666 126.007C73.6191 126.254 73.48 126.59 73.48 126.94V128.94C73.4827 131.322 74.4293 133.605 76.1125 135.29C77.7957 136.976 80.0783 137.925 82.46 137.93V137.93Z" stroke="white" stroke-width="2" stroke-linecap="round" stroke-linejoin="round"/>

      <animateTransform
        attributeName='transform'
        attributeType='XML'
        type='translate'
        values='0,-2; 0,2; 0,-2'
        keySplines='.5,.38,.39,.93;
              .5,.38,.39,.93'
        calcMode='spline'
        dur='2s'
        repeatCount='5'
      />
    </g>

    <g transform='translate(0, 2)'>
      <path d="M82.46 103.88H91.62C92.0529 103.88 92.4815 103.965 92.8813 104.131C93.2812 104.297 93.6443 104.541 93.9499 104.847C94.2556 105.154 94.4977 105.518 94.6624 105.918C94.8272 106.318 94.9113 106.747 94.91 107.18V112.89C94.9113 113.323 94.8272 113.752 94.6624 114.152C94.4977 114.552 94.2556 114.916 93.9499 115.223C93.6443 115.529 93.2812 115.773 92.8813 115.939C92.4815 116.105 92.0529 116.19 91.62 116.19H74.8C74.4499 116.19 74.1142 116.051 73.8666 115.803C73.6191 115.556 73.48 115.22 73.48 114.87V112.87C73.48 110.483 74.4282 108.194 76.1161 106.506C77.8039 104.818 80.0931 103.87 82.48 103.87" fill="#068E4D"/> <!---->
      <path d="M82.46 103.88H91.62C92.0529 103.88 92.4815 103.965 92.8813 104.131C93.2812 104.297 93.6443 104.541 93.9499 104.847C94.2556 105.154 94.4977 105.518 94.6624 105.918C94.8272 106.318 94.9113 106.747 94.91 107.18V112.89C94.9113 113.323 94.8272 113.752 94.6624 114.152C94.4977 114.552 94.2556 114.916 93.9499 115.223C93.6443 115.529 93.2812 115.773 92.8813 115.939C92.4815 116.105 92.0529 116.19 91.62 116.19H74.8C74.4499 116.19 74.1142 116.051 73.8666 115.803C73.6191 115.556 73.48 115.22 73.48 114.87V112.87C73.4827 110.488 74.4293 108.205 76.1125 106.52C77.7957 104.834 80.0783 103.885 82.46 103.88V103.88Z" stroke="white" stroke-width="2" stroke-linecap="round" stroke-linejoin="round"/>

      <path d="M82.46 137.93H91.62C92.0529 137.93 92.4815 137.845 92.8813 137.679C93.2812 137.513 93.6443 137.269 93.9499 136.963C94.2556 136.656 94.4977 136.292 94.6624 135.892C94.8272 135.492 94.9113 135.063 94.91 134.63V128.92C94.9113 128.487 94.8272 128.058 94.6624 127.658C94.4977 127.258 94.2556 126.894 93.9499 126.587C93.6443 126.281 93.2812 126.037 92.8813 125.871C92.4815 125.705 92.0529 125.62 91.62 125.62H74.8C74.4499 125.62 74.1142 125.759 73.8666 126.007C73.6191 126.254 73.48 126.59 73.48 126.94V128.94C73.48 131.327 74.4282 133.616 76.1161 135.304C77.8039 136.992 80.0931 137.94 82.48 137.94" fill="#068E4D"/>
      <path d="M82.46 137.93H91.62C92.0529 137.93 92.4815 137.845 92.8813 137.679C93.2812 137.513 93.6443 137.269 93.9499 136.963C94.2556 136.656 94.4977 136.292 94.6624 135.892C94.8272 135.492 94.9113 135.063 94.91 134.63V128.92C94.9113 128.487 94.8272 128.058 94.6624 127.658C94.4977 127.258 94.2556 126.894 93.9499 126.587C93.6443 126.281 93.2812 126.037 92.8813 125.871C92.4815 125.705 92.0529 125.62 91.62 125.62H74.8C74.4499 125.62 74.1142 125.759 73.8666 126.007C73.6191 126.254 73.48 126.59 73.48 126.94V128.94C73.4827 131.322 74.4293 133.605 76.1125 135.29C77.7957 136.976 80.0783 137.925 82.46 137.93V137.93Z" stroke="white" stroke-width="2" stroke-linecap="round" stroke-linejoin="round"/>

      <animateTransform
        attributeName='transform'
        attributeType='XML'
        type='translate'
        values='0, 2; 0,-2; 0,2'
        keySplines='.5,.38,.39,.93;
              .5,.38,.39,.93'
        calcMode='spline'
        dur='2s'
        repeatCount='5'
      />
    </g>

    <g id='cloud-1' transform='translate(300, 0)'>
      <path d="M1 28.08H36.29C36.29 24.7913 37.5964 21.6373 39.9219 19.3119C42.2473 16.9864 45.4013 15.68 48.69 15.68C51.9787 15.68 55.1327 16.9864 57.4581 19.3119C59.7836 21.6373 61.09 24.7913 61.09 28.08H79.02" stroke="white" stroke-width="2" stroke-miterlimit="10" stroke-linecap="round"/>
      <path d="M28.18 38.34H91.09" stroke="white" stroke-width="2" stroke-miterlimit="10" stroke-linecap="round"/>

      <animateTransform
        attributeName='transform'
        type='translate'
        to='-100, 0'
        dur='5s'
      />
      <animate
        attributeType='CSS'
        attributeName='opacity'
        to='0'
        dur='0.7s'
        begin='3s'
        fill='freeze'
      />
    </g>
    <g id='cloud-2' transform='translate(300, 0)'>
      <path d="M237.98 13.45H210.62C210.62 10.1613 209.314 7.00733 206.988 4.68188C204.663 2.35643 201.509 1.05 198.22 1.05C194.931 1.05 191.777 2.35643 189.452 4.68188C187.126 7.00733 185.82 10.1613 185.82 13.45H167.88" stroke="white" stroke-width="2" stroke-miterlimit="10" stroke-linecap="round"/>
      <path d="M246.24 13.45H268.43" stroke="white" stroke-width="2" stroke-miterlimit="10" stroke-linecap="round"/>

      <animateTransform
        attributeName='transform'
        type='translate'
        to='-100, 0'
        dur='5s'
      />
      <animate
        attributeType='CSS'
        attributeName='opacity'
        to='0'
        dur='0.7s'
        begin='4s'
        fill='freeze'
      />
    </g>

    <path transform='translate(240,0)' d="M218.19 23.72H257.97" stroke="white" stroke-width="2" stroke-miterlimit="10" stroke-linecap="round">
      <animateTransform
        attributeName='transform'
        type='translate'
        to='-100,0'
        dur='5.2s'
        begin='0.2s'
      />

      <animate
        attributeType='CSS'
        attributeName='opacity'
        to='0'
        dur='0.7s'
        begin='4s'
        fill='freeze'
      />
    </path>


    <path d="M65.48 110.03H43.28" stroke="white" stroke-width="2" stroke-miterlimit="10" stroke-linecap="round">
      <animate
        attributeName='d'
        values='M65.48 110.03H43.28;
        M65.48 110.03H50;
        M65.48 110.03H43.28'
        dur='0.15s'
        repeatCount='50'
      />
    </path>
    <path d="M65.48 131.77H43.28" stroke="white" stroke-width="2" stroke-miterlimit="10" stroke-linecap="round">
      <animate
        attributeName='d'
        values='M65.48 131.77H43.28;
        M65.48 131.77H47;
        M65.48 131.77H43.28'
        dur='0.25s'
        repeatCount='50'
      />
    </path>
    <path d="M65.48 121.52H28" stroke="white" stroke-width="2" stroke-miterlimit="10" stroke-linecap="round">
      <animate
        attributeName='d'
        values='M65.48 121.52H28;
        M65.48 121.52H35;
        M65.48 121.52H28'
        dur='0.20s'
        repeatCount='50'
      />
    </path>

    <path d="M249.17 258.42H204.11L172.03 227.12C171.689 226.832 171.257 226.674 170.81 226.674C170.363 226.674 169.931 226.832 169.59 227.12L159.39 237.35C159.077 237.62 158.678 237.769 158.265 237.769C157.852 237.769 157.453 237.62 157.14 237.35L138.14 217.18C137.707 216.813 137.158 216.612 136.59 216.612C136.022 216.612 135.473 216.813 135.04 217.18L108.62 242.82C108.308 243.092 107.909 243.242 107.495 243.242C107.081 243.242 106.682 243.092 106.37 242.82L103.74 239.9C103.425 239.611 103.013 239.451 102.585 239.451C102.157 239.451 101.745 239.611 101.43 239.9L83.86 259.54H40.01" stroke="white" stroke-width="2" stroke-miterlimit="10" stroke-linecap="round">
      <animate
        attributeName='d'
        values='M249.17 258.42H204.11L172.03 227.12C171.689 226.832 171.257 226.674 170.81 226.674C170.363 226.674 169.931 226.832 169.59 227.12L159.39 237.35C159.077 237.62 158.678 237.769 158.265 237.769C157.852 237.769 157.453 237.62 157.14 237.35L138.14 217.18C137.707 216.813 137.158 216.612 136.59 216.612C136.022 216.612 135.473 216.813 135.04 217.18L108.62 242.82C108.308 243.092 107.909 243.242 107.495 243.242C107.081 243.242 106.682 243.092 106.37 242.82L103.74 239.9C103.425 239.611 103.013 239.451 102.585 239.451C102.157 239.451 101.745 239.611 101.43 239.9L83.86 259.54H40.01;
        M249.17 258.42H204.11L171.5 231.378C171.159 231.089 170.727 230.931 170.28 230.931C169.833 230.931 169.401 231.089 169.06 231.378L158.86 241.608C158.547 241.878 158.148 242.027 157.735 242.027C157.322 242.027 156.923 241.878 156.61 241.608L137.61 221.438C137.177 221.071 136.628 220.87 136.06 220.87C135.492 220.87 134.943 221.071 134.51 221.438L108.09 247.078C107.778 247.35 107.379 247.5 106.965 247.5C106.551 247.5 106.152 247.35 105.84 247.078L103.21 244.158C102.895 243.869 102.483 243.709 102.055 243.709C101.627 243.709 101.215 243.869 100.9 244.158L83.86 259.54H40.01;
        M249.17 258.42H204.11L172 242.298C171.659 242.009 171.227 241.851 170.78 241.851C170.333 241.851 169.901 242.009 169.56 242.298L159.36 252.528C159.047 252.798 158.648 252.947 158.235 252.947C157.822 252.947 157.423 252.798 157.11 252.528L138.11 232.358C137.677 231.991 137.128 231.79 136.56 231.79C135.992 231.79 135.443 231.991 135.01 232.358L108.59 257.998C108.278 258.27 107.879 258.42 107.465 258.42C107.051 258.42 106.652 258.27 106.34 257.998L103.71 255.078C103.395 254.789 102.983 254.629 102.555 254.629C102.127 254.629 101.715 254.789 101.4 255.078L83.86 259.54H40.01;
        M249.17 258.42H204.11L171.72 248.946C171.379 248.658 170.947 248.5 170.5 248.5C170.053 248.5 169.621 248.658 169.28 248.946L159.25 255.5C158.937 255.77 158.538 255.919 158.125 255.919C157.712 255.919 157.313 255.77 157 255.5L137.55 240.068C137.117 239.701 136.568 239.5 136 239.5C135.432 239.5 134.883 239.701 134.45 240.068L108.59 257.998C108.278 258.27 107.879 258.42 107.465 258.42C107.051 258.42 106.652 258.27 106.34 257.998L103.655 257.449C103.34 257.16 102.928 257 102.5 257C102.072 257 101.66 257.16 101.345 257.449L83.86 259.54H40.01;
        M249.17 258.42H204.11L171.44 255.919C171.099 255.631 170.667 255.472 170.22 255.472C169.773 255.472 169.341 255.631 169 255.919L159.25 255.5C158.937 255.77 158.538 255.919 158.125 255.919C157.712 255.919 157.313 255.77 157 255.5L135 251C134.567 250.633 134.018 250.432 133.45 250.432C132.882 250.432 132.333 250.633 131.9 251L108.59 257.998C108.278 258.27 107.879 258.42 107.465 258.42C107.051 258.42 106.652 258.27 106.34 257.998L103.655 257.449C103.34 257.16 102.928 257 102.5 257C102.072 257 101.66 257.16 101.345 257.449L83.86 259.54H40.01;
        M249.17 258.42H204.11L171.44 257.5C171.099 257.212 170.667 257.054 170.22 257.054C169.773 257.054 169.341 257.212 169 257.5L159.125 256.635C158.812 256.905 158.413 257.054 158 257.054C157.587 257.054 157.188 256.905 156.875 256.635L135.05 253.568C134.617 253.201 134.068 253 133.5 253C132.932 253 132.383 253.201 131.95 253.568L108.59 257.998C108.278 258.27 107.879 258.42 107.465 258.42C107.051 258.42 106.652 258.27 106.34 257.998L103.5 258.42C103.185 258.131 102.773 257.971 102.345 257.971C101.917 257.971 101.505 258.131 101.19 258.42L83.86 259.54H40.01;
        M249.17 258.42H204.11L171.22 258.866C170.879 258.578 170.447 258.42 170 258.42C169.553 258.42 169.121 258.578 168.78 258.866L159.125 258.001C158.812 258.271 158.413 258.42 158 258.42C157.587 258.42 157.188 258.271 156.875 258.001L135 256.5C134.567 256.133 134.018 255.932 133.45 255.932C132.882 255.932 132.333 256.133 131.9 256.5L108.625 258.578C108.313 258.85 107.914 259 107.5 259C107.086 259 106.687 258.85 106.375 258.578L103.5 259C103.185 258.711 102.773 258.551 102.345 258.551C101.917 258.551 101.505 258.711 101.19 259L83.86 259.54H40.01;
        M249.17 258.42H204.11L171.22 258.43C170.879 258.141 170.447 257.983 170 257.983C169.553 257.983 169.121 258.141 168.78 258.43L159.125 258.448C158.812 258.718 158.413 258.867 158 258.867C157.587 258.867 157.188 258.718 156.875 258.448L135 258.551C134.567 258.184 134.018 257.983 133.45 257.983C132.882 257.983 132.333 258.184 131.9 258.551L108.625 258.578C108.313 258.85 107.914 259 107.5 259C107.086 259 106.687 258.85 106.375 258.578H103.5C103.185 258.289 102.773 258.129 102.345 258.129C101.917 258.129 101.505 258.289 101.19 258.578L84 259L40.01 259.54;
        M249.17 258.42H204.11L171.22 258.43C170.5 258.43 170.447 258.43 170 258.43C169.553 258.43 169.5 258.43 168.78 258.43L159.125 258.448C158.5 258.5 158.413 258.43 158 258.43C157.587 258.43 157.5 258.5 156.875 258.448L135 258.551C134.5 258.5 134.068 258.5 133.5 258.5C132.932 258.5 132.5 258.5 131.9 258.551L108.625 258.578C108 258.5 107.964 258.578 107.55 258.578C107.136 258.578 107 258.5 106.375 258.578H103.5C103 258.578 102.806 258.578 102.379 258.578C101.951 258.578 101.747 258.578 101.19 258.578L84 259L40.01 259.54'
        dur='0.7s'
        begin='3s'
        fill='freeze'
      />
    </path>
    <path d="M249.17 258.54H159.38C158.52 258.54 157.82 258.54 157.13 258.54H138.13C136.63 258.54 135.9 258.54 135.03 258.54H102.73C101.64 258.54 101.07 258.54 100.42 258.54H40.01" stroke="white" stroke-width="2" stroke-miterlimit="10" stroke-linecap="round"/>

    <animate
      attributeType='CSS'
      attributeName='opacity'
      to='0'
      dur='0.8s'
      begin='window2.end - 0.5s'
      fill='freeze'
    />

    <defs>
    <clipPath id="clip0">
      <rect width="269.43" height="260.54" fill="white"/>
    </clipPath>
    </defs>
  </g>
</svg>
