<svg viewBox="0 0 260 253" fill="none" xmlns="http://www.w3.org/2000/svg">
<!-- width="260" height="253"  -->
  <g id='closeSuitcase' transform='translate(0, 180)'>
    <path d="M180.64 0.999996H37.44C34.3686 1.01321 31.4273 2.24193 29.2592 4.41751C27.0912 6.59309 25.8726 9.53857 25.87 12.61V32.36H192.2V12.6C192.197 9.53029 190.98 6.5863 188.814 4.41101C186.648 2.23571 183.71 1.00584 180.64 0.989986" fill="#A67EE5"/>
    <path d="M180.64 0.999996H37.44C34.3686 1.01321 31.4273 2.24193 29.2592 4.41751C27.0912 6.59309 25.8726 9.53857 25.87 12.61V32.36H192.2V12.6C192.195 9.53202 190.976 6.59061 188.811 4.41748C186.645 2.24434 183.708 1.01583 180.64 0.999996Z" stroke="white" stroke-width="2" stroke-miterlimit="10"/>
    <path d="M221.87 0.999983H73.99C70.8714 0.967849 67.8667 2.17058 65.6317 4.34569C63.3966 6.52079 62.1126 9.4917 62.06 12.61V32.36H233.76V12.6C233.707 9.48169 232.423 6.51078 230.188 4.33568C227.953 2.16057 224.949 0.95784 221.83 0.989973" fill="#A67EE5"/>
    <path d="M221.87 0.999983H73.99C70.8714 0.967849 67.8667 2.17058 65.6317 4.34569C63.3966 6.52079 62.1126 9.4917 62.06 12.61V32.36H233.76V12.6C233.705 9.49042 232.425 6.52813 230.199 4.35631C227.973 2.18448 224.98 0.978425 221.87 0.999983V0.999983Z" stroke="white" stroke-width="2" stroke-miterlimit="10"/>
    <path d="M233.5 22.35C234.557 22.354 235.591 22.0441 236.472 21.4598C237.353 20.8754 238.041 20.0428 238.448 19.0674C238.855 18.092 238.964 17.0177 238.76 15.9805C238.556 14.9434 238.049 13.99 237.303 13.2412C236.557 12.4924 235.606 11.9818 234.569 11.7741C233.533 11.5664 232.458 11.671 231.481 12.0746C230.504 12.4782 229.669 13.1626 229.081 14.0412C228.494 14.9198 228.18 15.953 228.18 17.01C228.177 17.7103 228.313 18.4043 228.579 19.052C228.845 19.6998 229.237 20.2886 229.731 20.7848C230.225 21.2809 230.813 21.6745 231.459 21.9432C232.106 22.2118 232.8 22.35 233.5 22.35Z" fill="#A67EE5"/>
    <path d="M233.5 22.35C236.433 22.35 238.81 19.9592 238.81 17.01C238.81 14.0608 236.433 11.67 233.5 11.67C230.567 11.67 228.19 14.0608 228.19 17.01C228.19 19.9592 230.567 22.35 233.5 22.35Z" stroke="white" stroke-width="2" stroke-miterlimit="10"/>
    <path d="M232.38 12.6V22.35H221.65C220.899 22.3487 220.155 22.1994 219.462 21.9108C218.768 21.6221 218.138 21.1996 217.608 20.6676C217.078 20.1355 216.658 19.5042 216.372 18.8097C216.085 18.1152 215.939 17.3712 215.94 16.62V0.999996H220.82C223.89 1.01322 226.831 2.24225 228.997 4.41812C231.164 6.59398 232.38 9.53949 232.38 12.61" fill="#A67EE5"/>
    <path d="M232.38 12.6V22.35H221.65C220.899 22.3487 220.155 22.1994 219.462 21.9108C218.768 21.6221 218.138 21.1996 217.608 20.6676C217.078 20.1355 216.658 19.5042 216.372 18.8097C216.085 18.1152 215.939 17.3712 215.94 16.62V0.999996H220.82C223.889 1.01321 226.827 2.24087 228.994 4.41458C231.16 6.58828 232.377 9.53121 232.38 12.6Z" stroke="white" stroke-width="2" stroke-miterlimit="10"/>
    <path d="M235.05 61.56C236.2 61.6814 237.361 61.451 238.378 60.8994C239.394 60.3477 240.22 59.5007 240.746 58.4702C241.271 57.4396 241.472 56.2738 241.321 55.1268C241.171 53.9798 240.676 52.9055 239.902 52.0455C239.128 51.1856 238.112 50.5804 236.987 50.31C235.862 50.0396 234.682 50.1166 233.602 50.5309C232.522 50.9451 231.592 51.6772 230.937 52.6304C230.281 53.5836 229.93 54.7131 229.93 55.87C229.859 57.3023 230.358 58.7045 231.317 59.7706C232.276 60.8366 233.618 61.4799 235.05 61.56Z" fill="#A67EE5"/>
    <path d="M235.05 61.56C237.878 61.56 240.17 59.0125 240.17 55.87C240.17 52.7275 237.878 50.18 235.05 50.18C232.222 50.18 229.93 52.7275 229.93 55.87C229.93 59.0125 232.222 61.56 235.05 61.56Z" stroke="white" stroke-width="2" stroke-miterlimit="10"/>
    <path d="M184.98 71.8H36.98C33.8509 71.8268 30.8381 70.6147 28.5993 68.4284C26.3605 66.242 25.0774 63.2589 25.03 60.13V31.94H196.92V60.11C196.875 63.238 195.594 66.2212 193.357 68.4078C191.12 70.5944 188.108 71.8067 184.98 71.78" fill="#A67EE5"/>
    <path d="M184.98 71.8H36.98C33.8509 71.8268 30.8381 70.6147 28.5993 68.4284C26.3605 66.242 25.0774 63.2589 25.03 60.13V31.94H196.92V60.11C196.88 63.2415 195.602 66.2298 193.364 68.4207C191.126 70.6116 188.112 71.8267 184.98 71.8V71.8Z" stroke="white" stroke-width="2" stroke-miterlimit="10"/>
    <path d="M221.48 71.8H74.48C71.3615 71.816 68.3633 70.5981 66.1395 68.4117C63.9157 66.2254 62.6469 63.2483 62.61 60.13V31.94H233.34V60.11C233.308 63.2282 232.043 66.2069 229.82 68.394C227.597 70.5812 224.598 71.7987 221.48 71.78" fill="#A67EE5"/>
    <path d="M221.48 71.8H74.48C71.3615 71.816 68.3633 70.5981 66.1395 68.4117C63.9157 66.2254 62.6469 63.2483 62.61 60.13V31.94H233.34V60.11C233.314 63.2317 232.05 66.2155 229.827 68.4069C227.603 70.5984 224.602 71.8186 221.48 71.8Z" stroke="white" stroke-width="2" stroke-miterlimit="10"/>
    <path d="M169.76 57.01H135.25C134.123 57.0315 133.032 56.6062 132.217 55.8268C131.402 55.0474 130.929 53.9773 130.9 52.85V41.15C130.903 40.9863 130.938 40.8247 131.003 40.6746C131.068 40.5245 131.163 40.3888 131.281 40.2754C131.399 40.162 131.538 40.073 131.691 40.0138C131.843 39.9545 132.006 39.926 132.17 39.93H135.05C135.38 39.9246 135.698 40.0498 135.936 40.2784C136.174 40.5069 136.312 40.8202 136.32 41.15V51.15C136.33 51.4992 136.478 51.8304 136.731 52.0717C136.983 52.3131 137.321 52.4454 137.67 52.44H167.38C167.729 52.4454 168.067 52.3131 168.319 52.0717C168.572 51.8304 168.72 51.4992 168.73 51.15V41.15C168.733 40.9863 168.768 40.8247 168.833 40.6746C168.898 40.5245 168.993 40.3888 169.111 40.2754C169.229 40.162 169.368 40.073 169.521 40.0138C169.673 39.9545 169.836 39.926 170 39.93H172.88C173.21 39.9246 173.528 40.0498 173.766 40.2784C174.004 40.5069 174.142 40.8202 174.15 41.15V52.84C174.121 53.9673 173.648 55.0374 172.833 55.8168C172.018 56.5961 170.927 57.0215 169.8 57" fill="#A67EE5"/>
    <path d="M169.76 57.01H135.25C134.123 57.0315 133.032 56.6062 132.217 55.8268C131.402 55.0474 130.929 53.9773 130.9 52.85V41.15C130.903 40.9863 130.938 40.8247 131.003 40.6746C131.068 40.5245 131.163 40.3888 131.281 40.2754C131.399 40.162 131.538 40.073 131.691 40.0138C131.843 39.9545 132.006 39.926 132.17 39.93H135.05C135.38 39.9246 135.698 40.0498 135.936 40.2784C136.174 40.5069 136.312 40.8202 136.32 41.15V51.15C136.33 51.4992 136.478 51.8304 136.731 52.0717C136.983 52.3131 137.321 52.4454 137.67 52.44H167.38C167.729 52.4454 168.067 52.3131 168.319 52.0717C168.572 51.8304 168.72 51.4992 168.73 51.15V41.15C168.733 40.9863 168.768 40.8247 168.833 40.6746C168.898 40.5245 168.993 40.3888 169.111 40.2754C169.229 40.162 169.368 40.073 169.521 40.0138C169.673 39.9545 169.836 39.926 170 39.93H172.88C173.21 39.9246 173.528 40.0498 173.766 40.2784C174.004 40.5069 174.142 40.8202 174.15 41.15V52.84C174.137 53.4025 174.013 53.9569 173.785 54.4714C173.557 54.9858 173.23 55.4501 172.822 55.8376C172.414 56.2252 171.933 56.5282 171.408 56.7294C170.882 56.9306 170.322 57.026 169.76 57.01V57.01Z" stroke="white" stroke-width="2" stroke-miterlimit="10"/>
    <path d="M102.44 25.14H93.34V37.66H102.44V25.14Z" fill="#A67EE5"/>
    <path d="M102.44 25.14H93.34V37.66H102.44V25.14Z" stroke="white" stroke-width="2" stroke-miterlimit="10"/>
    <path d="M211.71 25.14H202.61V37.66H211.71V25.14Z" fill="#A67EE5"/>
    <path d="M211.71 25.14H202.61V37.66H211.71V25.14Z" stroke="white" stroke-width="2" stroke-miterlimit="10"/>
    <path d="M233.34 60.05V50.18H222.94C221.438 50.2167 220.012 50.8482 218.975 51.9357C217.938 53.0232 217.375 54.4778 217.41 55.98V71.8H222.14C228.3 71.8 233.34 66.51 233.34 60.05" fill="#A67EE5"/>
    <path d="M233.34 60.05V50.18H222.94C221.438 50.2167 220.012 50.8482 218.975 51.9357C217.938 53.0232 217.375 54.4778 217.41 55.98V71.8H222.14C228.3 71.8 233.34 66.52 233.34 60.05Z" stroke="white" stroke-width="2" stroke-miterlimit="10"/>
    <path d="M54.76 44.48H33.98C33.7148 44.48 33.4604 44.3746 33.2729 44.1871C33.0854 43.9996 32.98 43.7452 32.98 43.48V40.94C32.98 40.6748 33.0854 40.4204 33.2729 40.2329C33.4604 40.0454 33.7148 39.94 33.98 39.94H54.76C55.0252 39.94 55.2796 40.0454 55.4671 40.2329C55.6547 40.4204 55.76 40.6748 55.76 40.94V43.52C55.76 43.7852 55.6547 44.0396 55.4671 44.2271C55.2796 44.4146 55.0252 44.52 54.76 44.52" fill="#A67EE5"/>
    <path d="M54.76 44.48H33.98C33.7148 44.48 33.4604 44.3746 33.2729 44.1871C33.0854 43.9996 32.98 43.7452 32.98 43.48V40.94C32.98 40.6748 33.0854 40.4204 33.2729 40.2329C33.4604 40.0454 33.7148 39.94 33.98 39.94H54.76C55.0252 39.94 55.2796 40.0454 55.4671 40.2329C55.6547 40.4204 55.76 40.6748 55.76 40.94V43.52C55.7497 43.7782 55.6398 44.0224 55.4533 44.2014C55.2669 44.3804 55.0184 44.4802 54.76 44.48Z" stroke="white" stroke-width="2" stroke-miterlimit="10"/>

    <animate
      id='closedSuitcase'
      attributeName='opacity'
      attributeType='CSS'
      values='1;0'
      dur='0.05s'
      begin='6.8s'
      fill='freeze'
    />
  </g>

  <g id='openSuitcase' style='opacity: 0'>
    <g id='suitcaseTop'>
      <path d="M208.69 154.3C209.815 154.3 210.915 153.966 211.851 153.341C212.787 152.716 213.516 151.827 213.947 150.787C214.378 149.748 214.49 148.604 214.271 147.5C214.051 146.396 213.509 145.382 212.713 144.587C211.918 143.791 210.904 143.249 209.8 143.029C208.696 142.81 207.552 142.922 206.513 143.353C205.473 143.784 204.584 144.513 203.959 145.449C203.334 146.385 203 147.485 203 148.61C203 150.119 203.599 151.566 204.667 152.633C205.734 153.701 207.181 154.3 208.69 154.3" fill="#A67EE5"/>
      <path d="M208.69 154.3C211.833 154.3 214.38 151.753 214.38 148.61C214.38 145.468 211.833 142.92 208.69 142.92C205.548 142.92 203 145.468 203 148.61C203 151.753 205.548 154.3 208.69 154.3Z" stroke="white" stroke-width="2" stroke-miterlimit="10"/>
      <path d="M195.06 132.67H21.95C18.7847 132.67 15.7475 133.92 13.4999 136.149C11.2523 138.378 9.97639 141.405 9.95001 144.57V198.19C9.95001 201.638 11.3197 204.944 13.7576 207.382C16.1956 209.82 19.5022 211.19 22.95 211.19H206.95V144.57C206.924 141.415 205.656 138.398 203.421 136.17C201.187 133.943 198.165 132.686 195.01 132.67" fill="#A67EE5"/>
      <path d="M195.06 132.67H21.95C18.7847 132.67 15.7475 133.92 13.4999 136.149C11.2523 138.378 9.97639 141.405 9.95001 144.57V198.19C9.95001 201.638 11.3197 204.944 13.7576 207.382C16.1956 209.82 19.5022 211.19 22.95 211.19H206.95V144.57C206.924 141.424 205.663 138.414 203.439 136.188C201.215 133.962 198.206 132.699 195.06 132.67V132.67Z" stroke="white" stroke-width="2" stroke-miterlimit="10"/>
      <path d="M25 211.19V147.68C25 143.702 26.5804 139.886 29.3934 137.073C32.2064 134.26 36.0218 132.68 40 132.68H40.5" stroke="white" stroke-width="2"/>
    </g>

    <g id='leaf1' transform='rotate(50 133 210)'>
      <path d="M135.49 199.99C135.49 199.99 143.79 125.4 175.2 109.99" stroke="white" stroke-width="2" stroke-linecap="round" stroke-linejoin="round"/>
      <path transform='rotate(50 175 110)' d="M172.71 109.31L181.98 84.82C185.066 85.1928 188.038 86.2152 190.7 87.82C192.347 86.7012 194.356 86.2481 196.324 86.5519C198.291 86.8558 200.071 87.8941 201.303 89.4575C202.536 91.021 203.13 92.9935 202.966 94.9776C202.802 96.9617 201.892 98.81 200.42 100.15C201.348 103.116 201.641 106.244 201.28 109.33L175.28 112.63C174.862 112.683 174.437 112.626 174.046 112.467C173.656 112.307 173.314 112.049 173.052 111.718C172.791 111.387 172.619 110.995 172.554 110.578C172.489 110.161 172.532 109.735 172.68 109.34" fill="#3B7BF2">
        <animateTransform
          attributeName='transform'
          type='rotate'
          values='50 175 110; -10 175 110; 5 175 110; -3 175 110; 0 175 110'
          keySplines='.29,.55,.59,1;
                      .29,.55,.59,1;
                      .29,.55,.59,1;
                      .29,.55,.59,1'
          calcMode='spline'
          dur='3s'
          begin='showSuitcase.end'
          fill='freeze'
        />
      </path>

      <animateTransform
        attributeName='transform'
        type='rotate'
        values='50 133 210; -10 133 210; 5 133 210; -3 133 210; 1 133 210; 0 133 210'
        keySplines='.29,.55,.59,1;
                    .29,.55,.59,1;
                    .29,.55,.59,1;
                    .29,.55,.59,1;
                    .29,.55,.59,1'
        calcMode='spline'
        dur='3s'
        begin='showSuitcase.end'
        fill='freeze'
      />
    </g>

    <g id='leaf2' transform='rotate(70 133 210)'>
      <path d="M133 209.82C133 209.82 139.89 165.14 170.95 153.29" stroke="white" stroke-width="2" stroke-linecap="round" stroke-linejoin="round"/>
      <path d="M165.61 154.19L174.61 137.72C176.833 138.265 178.92 139.263 180.74 140.65C181.984 140.048 183.398 139.9 184.74 140.23C185.472 140.396 186.163 140.706 186.775 141.141C187.386 141.576 187.905 142.128 188.301 142.765C188.697 143.402 188.963 144.112 189.083 144.853C189.203 145.593 189.175 146.35 189 147.08C188.661 148.402 187.845 149.552 186.71 150.31C187.125 152.492 187.053 154.739 186.5 156.89L167.16 156.78C166.853 156.787 166.55 156.715 166.28 156.569C166.01 156.423 165.783 156.209 165.621 155.948C165.46 155.687 165.369 155.389 165.358 155.082C165.347 154.776 165.417 154.471 165.56 154.2" fill="#3B7BF2"/>
      <animateTransform
        attributeName='transform'
        type='rotate'
        values='70 133 210; -10 133 210; 5 133 210; -3 133 210; 1 133 210; 0 133 210'
        keySplines='.29,.55,.59,1;
                    .29,.55,.59,1;
                    .29,.55,.59,1;
                    .29,.55,.59,1;
                    .29,.55,.59,1'
        calcMode='spline'
        dur='4s'
        begin='showSuitcase.end'
        fill='freeze'
      />
    </g>

    <g id='ball'>
      <!-- d="M62.41 88.9V211.21" -->
      <path d="M62.41 211V211.2" stroke="white" stroke-width="2" stroke-miterlimit="10" stroke-linecap="round">

        <animate
          attributeName='d'
          values='M62.41 211V211.2;
                  M62.41 88.9V211.2;
                  M62.41 97.9V211.2;
                  M62.41 88.9V211.2'
          keySplines='.29,.55,.59,1;
                      .29,.55,.59,1;
                      .29,.55,.59,1'
          calcMode='spline'
          dur='1.3s'
          begin='showSuitcase.end'
          fill='freeze'
        />

        <animateTransform
          attributeName='transform'
          type='rotate'
          values='0 62.41 211;
                  -2 62.41 211;
                   1 62.41 211;
                  0 62.41 211'
          dur='2s'
          fill='freeze'
          begin='showSuitcase.end'
          additive='sum'
        />
      </path>

      <g transform='translate(0, 150) rotate(50 62 90)'>
        <path d="M61.34 84.06L59.15 87.85C59.0345 88.0541 58.9746 88.285 58.9762 88.5196C58.9779 88.7542 59.0411 88.9842 59.1596 89.1866C59.278 89.3891 59.4475 89.5569 59.6512 89.6733C59.8548 89.7898 60.0854 89.8507 60.32 89.85H64.69C64.9237 89.8489 65.1531 89.7867 65.3554 89.6696C65.5576 89.5525 65.7257 89.3845 65.843 89.1823C65.9602 88.9801 66.0226 88.7508 66.0238 88.5171C66.025 88.2834 65.9651 88.0534 65.85 87.85L63.67 84.06C63.551 83.8567 63.3808 83.6881 63.1764 83.5709C62.9721 83.4538 62.7406 83.3921 62.505 83.3921C62.2694 83.3921 62.0379 83.4538 61.8336 83.5709C61.6292 83.6881 61.459 83.8567 61.34 84.06Z" fill="white"/>
        <path d="M62.5 1.61C71.2231 1.61265 79.5883 5.07837 85.7574 11.2456C91.9264 17.4128 95.3947 25.7769 95.4 34.5C95.4 52.67 80.31 83.39 62.15 83.39C43.99 83.39 29.6 52.66 29.6 34.5C29.6053 25.7769 33.0736 17.4128 39.2427 11.2456C45.4117 5.07837 53.7769 1.61265 62.5 1.61V1.61ZM62.5 0C53.3533 0.0105865 44.5842 3.6488 38.1165 10.1165C31.6488 16.5842 28.0106 25.3533 28 34.5C28 44.01 31.8 56.6 37.68 66.57C44.68 78.45 53.36 84.99 62.14 84.99C70.92 84.99 79.74 78.45 86.95 66.59C93.05 56.59 97 43.95 97 34.5C96.9894 25.3533 93.3512 16.5842 86.8835 10.1165C80.4158 3.6488 71.6467 0.0105865 62.5 0" fill="white"/>
        <path d="M50.82 34.58C50.82 16.42 56.05 1.69 62.5 1.69C53.7769 1.69265 45.4117 5.15837 39.2426 11.3256C33.0735 17.4928 29.6053 25.8569 29.6 34.58C29.6 52.75 43.98 83.47 62.15 83.47H62.32C55.89 83.28 50.82 52.7 50.82 34.58Z" fill="#76ABFF"/>
        <path d="M95.4 34.58C95.3947 25.8569 91.9264 17.4928 85.7574 11.3256C79.5883 5.15837 71.2231 1.69265 62.5 1.69C68.95 1.69 74.18 16.42 74.18 34.58C74.18 52.74 68.89 83.06 62.5 83.45C80.5 83.06 95.4 52.63 95.4 34.58" fill="#1553B7"/>
        <path d="M74.18 34.58C74.18 16.42 68.95 1.69 62.5 1.69C56.05 1.69 50.82 16.42 50.82 34.58C50.82 52.74 55.89 83.27 62.32 83.47H62.5C68.89 83.07 74.18 52.64 74.18 34.59" fill="#3B7BF2"/>
        <path d="M55.3 27.55C54.1726 27.55 53.0706 27.8843 52.1332 28.5106C51.1959 29.137 50.4653 30.0272 50.0339 31.0687C49.6024 32.1103 49.4896 33.2563 49.7095 34.362C49.9294 35.4677 50.4723 36.4834 51.2695 37.2805C52.0666 38.0777 53.0823 38.6205 54.188 38.8405C55.2937 39.0604 56.4397 38.9475 57.4813 38.5161C58.5228 38.0847 59.413 37.3541 60.0394 36.4168C60.6657 35.4794 61 34.3774 61 33.25C61.0451 32.4897 60.9286 31.7284 60.6581 31.0164C60.3877 30.3044 59.9693 29.6578 59.4308 29.1192C58.8922 28.5806 58.2456 28.1623 57.5336 27.8918C56.8216 27.6214 56.0603 27.5049 55.3 27.55V27.55ZM55.3 35.55C53.44 35.55 52.24 34.62 52.24 33.26C52.24 31.9 53.45 30.97 55.3 30.97C57.15 30.97 58.37 31.9 58.37 33.26C58.37 34.62 57.12 35.55 55.3 35.55Z" fill="white"/>
        <path d="M69.5 27.55C69.8256 27.5498 70.1451 27.6389 70.4236 27.8076C70.7021 27.9764 70.929 28.2183 71.0795 28.507C71.2301 28.7958 71.2986 29.1203 71.2775 29.4452C71.2564 29.7702 71.1466 30.0831 70.96 30.35L57.63 49.69C57.3427 50.0217 56.9437 50.2363 56.5087 50.2931C56.0736 50.3499 55.6328 50.2449 55.2701 49.9982C54.9073 49.7514 54.6478 49.38 54.5409 48.9545C54.4339 48.5289 54.487 48.079 54.69 47.69L68.03 28.35C68.1934 28.1113 68.4129 27.9163 68.6691 27.7821C68.9254 27.6478 69.2107 27.5784 69.5 27.58" fill="white"/>
        <path d="M70.97 39.07C69.8427 39.07 68.7406 39.4043 67.8033 40.0306C66.8659 40.6569 66.1353 41.5472 65.7039 42.5887C65.2725 43.6302 65.1596 44.7763 65.3795 45.882C65.5995 46.9877 66.1424 48.0034 66.9395 48.8005C67.7367 49.5977 68.7523 50.1405 69.858 50.3605C70.9637 50.5804 72.1098 50.4675 73.1513 50.0361C74.1929 49.6047 75.0831 48.8741 75.7094 47.9367C76.3357 46.9994 76.67 45.8974 76.67 44.77C76.7136 44.0101 76.5959 43.2495 76.3249 42.5382C76.0538 41.827 75.6355 41.181 75.0972 40.6428C74.559 40.1045 73.9131 39.6862 73.2018 39.4151C72.4905 39.1441 71.73 39.0265 70.97 39.07ZM70.97 47.07C69.11 47.07 67.91 46.14 67.91 44.78C67.91 43.42 69.12 42.49 70.97 42.49C72.82 42.49 74.04 43.39 74.04 44.78C74.04 46.17 72.83 47.07 70.97 47.07Z" fill="white"/>

        <animateTransform
          attributeName='transform'
          type='translate'
          values='0, 150; 0, 0; -5, 20; 0,0; 2, 10; 0,0'
          keySplines='.29,.55,.59,1;
                      .29,.55,.59,1;
                      .29,.55,.59,1;
                      .29,.55,.59,1;
                      .29,.55,.59,1'
          calcMode='spline'
          dur='2s'
          begin='showSuitcase.end'
          fill='freeze'
        />

        <animateTransform
          attributeName='transform'
          type='rotate'
          values='50 62 90; -10 62 90; 5 62 90; 0 62 90'
          keySplines='.29,.55,.59,1;
                      .29,.55,.59,1;
                      .29,.55,.59,1'
          calcMode='spline'
          dur='3s'
          fill='freeze'
          begin='showSuitcase.end'
          additive='sum'
        />
      </g>
    </g>


    <g id='leaf3'>
      <g transform='rotate(70 133 210)'>
        <path d="M96.53 126.35C120.63 158.8 132.34 210.35 132.34 210.35" stroke="#3B7BF2" stroke-width="2" stroke-linecap="round" stroke-linejoin="round"/>
        <path d="M80.49 118.41C87.03 125.92 97.65 127.41 97.65 127.41C97.65 127.41 97.65 116.69 91.12 109.19C84.59 101.69 73.95 100.19 73.95 100.19C73.95 100.19 73.95 110.91 80.49 118.41" fill="#76ABFF"/>
        <path d="M107.93 128.73C105.24 138.31 109.84 148 109.84 148C109.84 148 118.84 142.14 121.51 132.55C124.18 122.96 119.6 113.28 119.6 113.28C119.6 113.28 110.6 119.14 107.93 128.73Z" fill="#3B7BF2"/>
        <path d="M90.58 149.9C100.17 152.6 109.84 147.99 109.84 147.99C109.84 147.99 103.98 138.99 94.39 136.32C84.8 133.65 75.13 138.19 75.13 138.19C75.13 138.19 81 147.19 90.58 149.86" fill="#3B7BF2"/>
        <path d="M120.86 154.71C117.45 164.07 121.33 174.06 121.33 174.06C121.33 174.06 130.72 168.88 134.12 159.53C137.52 150.18 133.65 140.19 133.65 140.19C133.65 140.19 124.26 145.37 120.86 154.72" fill="#1553B7"/>
        <path d="M101.98 174.54C111.34 177.94 121.33 174.07 121.33 174.07C121.33 174.07 116.15 164.68 106.79 161.28C97.43 157.88 87.44 161.75 87.44 161.75C87.44 161.75 92.62 171.14 101.98 174.54Z" fill="#1553B7"/>

        <animateTransform
          attributeName='transform'
          type='rotate'
          values='70 133 210; -10 133 210; 5 133 210; -3 133 210; 1 133 210; 0 133 210'
          keySplines='.29,.55,.59,1;
                      .29,.55,.59,1;
                      .29,.55,.59,1;
                      .29,.55,.59,1;
                      .29,.55,.59,1'
          calcMode='spline'
          dur='3.5s'
          begin='showSuitcase.end + 0.1s'
          fill='freeze'
        />
      </g>

      <g transform='rotate(70 133 210)'>
        <path d="M138.55 186.96C140.85 196.06 136.28 205.08 136.28 205.08C136.28 205.08 127.96 199.34 125.65 190.23C123.34 181.12 127.92 172.11 127.92 172.11C127.92 172.11 136.24 177.86 138.55 186.96Z" fill="#3B7BF2"/>
        <path d="M154.39 207.35C145.28 209.66 136.27 205.08 136.27 205.08C136.27 205.08 142.01 196.76 151.12 194.45C160.23 192.14 169.24 196.72 169.24 196.72C169.24 196.72 163.49 205.04 154.39 207.35Z" fill="#3B7BF2"/>
        <path d="M143.32 193.86C139.511 199.157 136.067 204.706 133.01 210.47" stroke="#3B7BF2" stroke-width="2" stroke-linecap="round" stroke-linejoin="round"/>
        <path d="M158.45 186.38C152.28 193.46 142.26 194.82 142.26 194.82C142.26 194.82 142.26 184.71 148.42 177.64C154.58 170.57 164.61 169.19 164.61 169.19C164.61 169.19 164.61 179.3 158.45 186.38Z" fill="#76ABFF"/>

        <animateTransform
          attributeName='transform'
          type='rotate'
          values='70 133 210; -10 133 210; 5 133 210; -3 133 210; 1 133 210; 0 133 210'
          keySplines='.29,.55,.59,1;
                      .29,.55,.59,1;
                      .29,.55,.59,1;
                      .29,.55,.59,1;
                      .29,.55,.59,1'
          calcMode='spline'
          dur='3.7s'
          begin='showSuitcase.end +0.1s'
          fill='freeze'
        />
      </g>

    </g>


    <g id='suitcaseBottom'>
      <path d="M235.05 240.81C236.2 240.931 237.361 240.701 238.378 240.149C239.394 239.598 240.22 238.751 240.746 237.72C241.271 236.69 241.472 235.524 241.321 234.377C241.171 233.23 240.676 232.155 239.902 231.296C239.128 230.436 238.112 229.83 236.987 229.56C235.862 229.29 234.682 229.367 233.602 229.781C232.522 230.195 231.592 230.927 230.937 231.88C230.281 232.834 229.93 233.963 229.93 235.12C229.859 236.552 230.358 237.955 231.317 239.021C232.276 240.087 233.618 240.73 235.05 240.81Z" fill="#A67EE5"/>
      <path d="M235.05 240.8C237.878 240.8 240.17 238.253 240.17 235.11C240.17 231.968 237.878 229.42 235.05 229.42C232.222 229.42 229.93 231.968 229.93 235.11C229.93 238.253 232.222 240.8 235.05 240.8Z" stroke="white" stroke-width="2" stroke-miterlimit="10"/>
      <path d="M184.98 251.05H36.98C33.8508 251.077 30.8381 249.865 28.5993 247.678C26.3605 245.492 25.0774 242.509 25.03 239.38V211.19H196.92V239.36C196.875 242.488 195.594 245.471 193.357 247.658C191.12 249.844 188.108 251.057 184.98 251.03" fill="#A67EE5"/>
      <path d="M184.98 251.05H36.98C33.8508 251.077 30.8381 249.865 28.5993 247.678C26.3605 245.492 25.0774 242.509 25.03 239.38V211.19H196.92V239.36C196.88 242.492 195.602 245.48 193.364 247.671C191.126 249.862 188.112 251.077 184.98 251.05V251.05Z" stroke="white" stroke-width="2" stroke-miterlimit="10"/>
      <path d="M221.48 251.05H74.48C71.3615 251.066 68.3633 249.848 66.1395 247.662C63.9157 245.475 62.6469 242.498 62.61 239.38V211.19H233.34V239.36C233.308 242.478 232.043 245.457 229.82 247.644C227.597 249.831 224.598 251.049 221.48 251.03" fill="#A67EE5"/>
      <path d="M221.48 251.05H74.48C71.3615 251.066 68.3633 249.848 66.1395 247.662C63.9157 245.475 62.6469 242.498 62.61 239.38V211.19H233.34V239.36C233.314 242.482 232.05 245.465 229.827 247.657C227.603 249.848 224.602 251.069 221.48 251.05Z" stroke="white" stroke-width="2" stroke-miterlimit="10"/>
      <path d="M169.76 236.26H135.25C134.123 236.282 133.032 235.856 132.217 235.077C131.402 234.297 130.929 233.227 130.9 232.1V220.4C130.903 220.236 130.938 220.075 131.003 219.925C131.068 219.775 131.163 219.639 131.281 219.525C131.399 219.412 131.538 219.323 131.691 219.264C131.844 219.204 132.006 219.176 132.17 219.18H135.05C135.38 219.175 135.698 219.3 135.936 219.528C136.174 219.757 136.312 220.07 136.32 220.4V230.4C136.33 230.749 136.478 231.08 136.731 231.322C136.983 231.563 137.321 231.695 137.67 231.69H167.38C167.729 231.695 168.067 231.563 168.319 231.322C168.572 231.08 168.72 230.749 168.73 230.4V220.4C168.733 220.236 168.768 220.075 168.833 219.925C168.898 219.775 168.993 219.639 169.111 219.525C169.229 219.412 169.368 219.323 169.521 219.264C169.674 219.204 169.836 219.176 170 219.18H172.88C173.21 219.175 173.528 219.3 173.766 219.528C174.004 219.757 174.142 220.07 174.15 220.4V232.09C174.121 233.217 173.648 234.287 172.833 235.067C172.018 235.846 170.927 236.271 169.8 236.25" fill="#A67EE5"/>
      <path d="M169.76 236.26H135.25C134.123 236.282 133.032 235.856 132.217 235.077C131.402 234.297 130.929 233.227 130.9 232.1V220.4C130.903 220.236 130.938 220.075 131.003 219.925C131.068 219.775 131.163 219.639 131.281 219.525C131.399 219.412 131.538 219.323 131.691 219.264C131.844 219.204 132.006 219.176 132.17 219.18H135.05C135.38 219.175 135.698 219.3 135.936 219.528C136.174 219.757 136.312 220.07 136.32 220.4V230.4C136.33 230.749 136.478 231.08 136.731 231.322C136.983 231.563 137.321 231.695 137.67 231.69H167.38C167.729 231.695 168.067 231.563 168.319 231.322C168.572 231.08 168.72 230.749 168.73 230.4V220.4C168.733 220.236 168.768 220.075 168.833 219.925C168.898 219.775 168.993 219.639 169.111 219.525C169.229 219.412 169.368 219.323 169.521 219.264C169.674 219.204 169.836 219.176 170 219.18H172.88C173.21 219.175 173.528 219.3 173.766 219.528C174.004 219.757 174.142 220.07 174.15 220.4V232.09C174.137 232.653 174.013 233.207 173.785 233.721C173.557 234.236 173.23 234.7 172.822 235.088C172.414 235.475 171.933 235.778 171.408 235.979C170.883 236.181 170.322 236.276 169.76 236.26V236.26Z" stroke="white" stroke-width="2" stroke-miterlimit="10"/>
      <path d="M102.44 204.38H93.34V216.9H102.44V204.38Z" fill="#A67EE5"/>
      <path d="M102.44 204.38H93.34V216.9H102.44V204.38Z" stroke="white" stroke-width="2" stroke-miterlimit="10"/>
      <path d="M211.71 204.38H202.61V216.9H211.71V204.38Z" fill="#A67EE5"/>
      <path d="M211.71 204.38H202.61V216.9H211.71V204.38Z" stroke="white" stroke-width="2" stroke-miterlimit="10"/>
      <path d="M233.34 239.3V229.43H222.94C221.438 229.467 220.012 230.098 218.975 231.186C217.938 232.273 217.375 233.728 217.41 235.23V251.05H222.14C228.3 251.05 233.34 245.76 233.34 239.3" fill="#A67EE5"/>
      <path d="M233.34 239.3V229.43H222.94C221.438 229.467 220.012 230.098 218.975 231.186C217.938 232.273 217.375 233.728 217.41 235.23V251.05H222.14C228.3 251.05 233.34 245.77 233.34 239.3Z" stroke="white" stroke-width="2" stroke-miterlimit="10"/>
      <path d="M54.76 223.73H33.98C33.7148 223.73 33.4604 223.625 33.2729 223.437C33.0853 223.25 32.98 222.995 32.98 222.73V220.19C32.98 219.925 33.0853 219.67 33.2729 219.483C33.4604 219.295 33.7148 219.19 33.98 219.19H54.76C55.0252 219.19 55.2796 219.295 55.4671 219.483C55.6546 219.67 55.76 219.925 55.76 220.19V222.77C55.76 223.035 55.6546 223.29 55.4671 223.477C55.2796 223.665 55.0252 223.77 54.76 223.77" fill="#A67EE5"/>
      <path d="M54.76 223.73H33.98C33.7148 223.73 33.4604 223.625 33.2729 223.437C33.0853 223.25 32.98 222.995 32.98 222.73V220.19C32.98 219.925 33.0853 219.67 33.2729 219.483C33.4604 219.295 33.7148 219.19 33.98 219.19H54.76C55.0252 219.19 55.2796 219.295 55.4671 219.483C55.6546 219.67 55.76 219.925 55.76 220.19V222.77C55.7496 223.028 55.6397 223.272 55.4533 223.451C55.2669 223.63 55.0184 223.73 54.76 223.73Z" stroke="white" stroke-width="2" stroke-miterlimit="10"/>
    </g>



    <g id='birds' transform='translate(-80,100)'>

      <path d="M233.96 105.99C233.952 104.877 234.325 103.795 235.016 102.922C235.707 102.049 236.675 101.438 237.76 101.19V101.19L258.83 95.79C251.05 110.63 239.65 110.86 238.83 110.86C237.539 110.847 236.306 110.325 235.397 109.407C234.489 108.49 233.98 107.251 233.98 105.96" fill="white">

        <animate
          attributeName='d'
          values='
          M233.96 105.99C233.952 104.877 234.325 103.795 235.016 102.922C235.707 102.049 236.675 101.438 237.76 101.19V101.19L258.83 95.79C251.05 110.63 239.65 110.86 238.83 110.86C237.539 110.847 236.306 110.325 235.397 109.407C234.489 108.49 233.98 107.251 233.98 105.96;

          M234 106.153C233.998 105.045 234.103 103.967 234.297 103.099C234.492 102.23 234.764 101.622 235.07 101.375V101.375L241 96C238.81 110.771 235.602 111 235.371 111C235.007 110.987 234.66 110.467 234.405 109.554C234.149 108.641 234.006 107.408 234.006 106.123;

          M234 106.153C234.002 105.045 233.883 103.967 233.66 103.099C233.438 102.23 233.127 101.622 232.778 101.375V101.375L226 96C228.503 110.771 232.17 111 232.433 111C232.849 110.987 233.245 110.467 233.538 109.554C233.83 108.641 233.994 107.408 233.994 106.123'
          dur='0.1s'
          begin='showSuitcase.end'
          repeatCount='indefinite'
        />
      </path>
      <path d="M217 92.05H227.76C228.115 91.1766 228.726 90.4316 229.514 89.9137C230.301 89.3958 231.228 89.1294 232.17 89.15C232.853 89.1132 233.534 89.2563 234.145 89.5652C234.756 89.874 235.275 90.3377 235.65 90.91C236.2 91.7206 236.659 92.5891 237.02 93.5C237.65 95.07 241.02 109.3 242.91 112.66C244.01 114.66 247.3 119.82 247.3 119.82C247.503 120.169 247.609 120.566 247.61 120.97V130.19C247.61 130.19 244.5 129.11 244.5 126.28V119.75C242.59 120.02 238.5 118.1 236.17 116.87C233.28 115.49 231.011 113.079 229.81 110.11C228.598 107.184 228.559 103.904 229.7 100.95C230.168 100.047 230.437 99.0552 230.49 98.04C230.43 96.9 229.1 95.32 228.31 93.99L217 92.05Z" fill="white"/>

      <animateTransform
        attributeName='transform'
        type='translate'
        values='0,0; 70,-120; 50,-100; 70,-120; 65,-115; 70,-120'
        keyTimes='0; .05; .3; .5; .7; 1'
        dur='2s'
        additive='sum'
        begin='showSuitcase.end'
        fill='freeze'
      />
      <animateTransform
        attributeName='transform'
        type='rotate'
        values='-40 232 109; 0 232 109; -20 232 109; 0 232 109'
        keySplines='.29,.55,.72,.85;
                    .29,.55,.72,.85;
                    .29,.55,.72,.85'
        calcMode='spline'
        dur='2s'
        additive='sum'
        begin='showSuitcase.end'
        fill='freeze'
      />
    </g>

    <animate
      id='showSuitcase'
      attributeName='opacity'
      attributeType='CSS'
      values='0;1'
      dur='0.02s'
      begin='closedSuitcase.end'
      fill='freeze'
    />
  </g>
  <path d="M1 251.19H258.52" stroke="white" stroke-width="2" stroke-linecap="round" stroke-linejoin="round"/>
</svg>
