<svg width='330' height='400' viewBox="0 0 330 175" fill="none" xmlns="http://www.w3.org/2000/svg">
  <defs>
    <path
      id='moveSuitcase'
      d='M157.174 49.0822C181.364 39.8422 186.974 33.2422 186.594 28.6422C185.354 13.5122 116.904 -10.1378 74.1737 22.0822C71.2437 24.2922 42.5137 46.6022 45.1737 76.0822C48.7137 115.262 105.004 137.232 120.874 143.432C174.524 164.372 215.304 152.222 222.654 170.612C225.544 177.862 223.434 190.302 201.174 213.082'
      fill="none" stroke="#000" stroke-miterlimit="10"/>
  </defs>

  <g id='leaf1'>
    <path d="M249.34 152.82C249.665 152.58 250.054 152.444 250.458 152.43C250.861 152.415 251.26 152.524 251.601 152.74C251.942 152.956 252.209 153.271 252.368 153.642C252.526 154.013 252.569 154.424 252.49 154.82C251.49 161.82 250.42 175.15 257.34 174.22C262.28 173.56 240.69 142.69 276.66 136.06C277.032 135.982 277.418 136.011 277.773 136.145C278.129 136.278 278.439 136.51 278.667 136.813C278.896 137.116 279.034 137.478 279.064 137.856C279.095 138.235 279.017 138.614 278.84 138.95C277.52 141.69 276.01 145.56 276.11 148.85C276.118 149.283 276.266 149.702 276.533 150.044C276.8 150.386 277.171 150.632 277.589 150.744C278.008 150.857 278.452 150.831 278.854 150.67C279.256 150.508 279.595 150.221 279.82 149.85C283.92 143.7 294.92 131.99 316.41 139.15C316.753 139.261 317.059 139.463 317.297 139.734C317.535 140.005 317.695 140.335 317.76 140.69C318.69 145.49 321.89 163.93 317.47 169.41C312.38 175.72 302.47 173.55 301.29 179.66C299.99 186.57 308.8 184.48 314.71 179.44C315.008 179.177 315.377 179.008 315.77 178.956C316.164 178.903 316.565 178.969 316.921 179.145C317.277 179.321 317.573 179.599 317.77 179.943C317.968 180.288 318.058 180.684 318.03 181.08C317.78 186.53 315.85 195.08 306.91 199.77C293.13 206.98 283.43 192.77 281.72 195.89C279.13 200.55 289.66 204.36 295.5 206.07C295.871 206.168 296.206 206.371 296.465 206.654C296.725 206.938 296.896 207.29 296.961 207.669C297.025 208.047 296.979 208.436 296.828 208.789C296.677 209.143 296.428 209.445 296.11 209.66C285.59 217.4 266.98 219.94 259.11 204.25C250.81 187.66 246.18 191.76 240.92 183.87C235.21 175.3 236.59 161.33 249.3 152.82H249.34ZM278.7 185.29C279.2 188.02 283.9 188.8 287.05 188.23C290.2 187.66 295.52 184.4 295.05 181.67C294.58 178.94 288.43 177.77 285.27 178.34C282.11 178.91 278.22 182.56 278.72 185.29" fill="#E81A5A">

      <animateTransform
        attributeName='transform'
        type='rotate'
        values='0 255 180; -3 255 180; 2 255 180; -1 255 180; 1 255 180; 0 255 180'
        keySplines='.19,.88,.68,.96;
                    .19,.88,.68,.96;
                    .19,.88,.68,.96;
                    .19,.88,.68,.96;
                    .19,.88,.68,.96'
        dur='3s'
        repeatCount='indefinite'
      />
    </path>

    <path d="M248.87 273.88C248.87 273.88 243.96 203.61 254.41 193.16" stroke="#E81A5A" stroke-width="2" stroke-miterlimit="10"/>
  </g>



  <g id='clouds' style='opacity: 0' transform='translate(50, 0)'>
    <path d="M51.31 23.72H91.08" stroke="white" stroke-width="2" stroke-miterlimit="10" stroke-linecap="round"/>
    <path d="M71.09 13.45H43.73C43.73 10.1613 42.4236 7.00733 40.0981 4.68188C37.7727 2.35643 34.6187 1.05 31.33 1.05C28.0413 1.05 24.8873 2.35643 22.5619 4.68188C20.2364 7.00733 18.93 10.1613 18.93 13.45H1" stroke="white" stroke-width="2" stroke-miterlimit="10" stroke-linecap="round"/>
    <path d="M79.35 13.45H101.55" stroke="white" stroke-width="2" stroke-miterlimit="10" stroke-linecap="round"/>
    <path d="M258 91.28H297.78" stroke="white" stroke-width="2" stroke-miterlimit="10" stroke-linecap="round"/>
    <path d="M286.05 81H308.25" stroke="white" stroke-width="2" stroke-miterlimit="10" stroke-linecap="round"/>
    <path d="M221.64 65H202.19C202.068 56.8962 199.175 49.0784 193.994 42.8464C188.812 36.6144 181.654 32.3436 173.708 30.744C165.763 29.1444 157.51 30.3125 150.32 34.0539C143.131 37.7954 137.439 43.8849 134.19 51.31C130.247 49.1215 125.809 47.9818 121.3 48C115.938 48.0179 110.705 49.6489 106.282 52.6807C101.859 55.7126 98.4506 60.0051 96.5 65H81.35C78.5652 65 75.8945 66.1062 73.9254 68.0754C71.9563 70.0445 70.85 72.7152 70.85 75.5C70.85 78.2848 71.9563 80.9555 73.9254 82.9246C75.8945 84.8937 78.5652 86 81.35 86H221.65C224.435 86 227.105 84.8937 229.075 82.9246C231.044 80.9555 232.15 78.2848 232.15 75.5C232.15 72.7152 231.044 70.0445 229.075 68.0754C227.105 66.1062 224.435 65 221.65 65" fill="white"/>

    <animate
      attributeType='CSS'
      attributeName='opacity'
      to='1'
      dur='0.5s'
      begin='3.8s'
      fill='freeze'
    />

    <animateTransform
      id='translateClouds'
      attributeName='transform'
      type='translate'
      to='0,0'
      dur='0.3s'
      begin='3.7s'
      fill='freeze'
    />

    <animateTransform
      id='cloudsTranslateToTop'
      attributeName='transform'
      type='translate'
      to='0,-100'
      dur='0.5s'
      begin='moveSuitCase.begin + 0.6s'
      fill='freeze'
    />

    <animate
      attributeType='CSS'
      attributeName='opacity'
      to='0'
      dur='0.1s'
      begin='cloudsTranslateToTop.begin + 0.1s'
      fill='freeze'
    />
  </g>



  <g id='suitcase' transform='scale(0,0)'>
    <g transform='translate(-70,-185)'>
      <path d="M105.76 247.09C106.695 247.087 107.592 246.715 108.253 246.053C108.915 245.392 109.287 244.495 109.29 243.56V238.49C109.29 237.554 108.918 236.656 108.256 235.994C107.594 235.332 106.696 234.96 105.76 234.96C104.824 234.96 103.926 235.332 103.264 235.994C102.602 236.656 102.23 237.554 102.23 238.49V243.56C102.235 244.495 102.609 245.389 103.27 246.05C103.931 246.711 104.825 247.085 105.76 247.09Z" fill="#A67EE5"/>
      <path d="M105.76 247.09C106.695 247.087 107.592 246.715 108.253 246.053C108.915 245.392 109.287 244.495 109.29 243.56V238.49C109.29 237.554 108.918 236.656 108.256 235.994C107.594 235.332 106.696 234.96 105.76 234.96C104.824 234.96 103.926 235.332 103.264 235.994C102.602 236.656 102.23 237.554 102.23 238.49V243.56C102.235 244.495 102.609 245.389 103.27 246.05C103.931 246.711 104.825 247.085 105.76 247.09V247.09Z" stroke="white" stroke-width="2" stroke-miterlimit="10"/>
      <path d="M30.22 247.09C31.1554 247.087 32.0517 246.715 32.7132 246.053C33.3746 245.392 33.7474 244.495 33.75 243.56V238.49C33.75 237.554 33.3781 236.656 32.7161 235.994C32.0541 235.332 31.1562 234.96 30.22 234.96C29.2838 234.96 28.3859 235.332 27.7239 235.994C27.0619 236.656 26.69 237.554 26.69 238.49V243.56C26.6926 244.495 27.0654 245.392 27.7268 246.053C28.3883 246.715 29.2846 247.087 30.22 247.09Z" fill="#A67EE5"/>
      <path d="M30.22 247.09C31.1554 247.087 32.0517 246.715 32.7132 246.053C33.3746 245.392 33.7474 244.495 33.75 243.56V238.49C33.75 237.554 33.3781 236.656 32.7161 235.994C32.0541 235.332 31.1562 234.96 30.22 234.96C29.2838 234.96 28.3859 235.332 27.7239 235.994C27.0619 236.656 26.69 237.554 26.69 238.49V243.56C26.6926 244.495 27.0654 245.392 27.7268 246.053C28.3883 246.715 29.2846 247.087 30.22 247.09V247.09Z" stroke="white" stroke-width="2" stroke-miterlimit="10"/>
      <path d="M24.79 238.5H99.29C102.298 238.492 105.18 237.294 107.307 235.167C109.434 233.04 110.632 230.158 110.64 227.15V161.07C110.632 158.062 109.434 155.18 107.307 153.053C105.18 150.926 102.298 149.728 99.29 149.72H24.79C21.7822 149.728 18.8999 150.926 16.7731 153.053C14.6463 155.18 13.4479 158.062 13.44 161.07V227.15C13.4479 230.158 14.6463 233.04 16.7731 235.167C18.8999 237.294 21.7822 238.492 24.79 238.5Z" fill="#A67EE5"/>
      <path d="M99.29 149.73H24.79C18.5216 149.73 13.44 154.812 13.44 161.08V227.16C13.44 233.428 18.5216 238.51 24.79 238.51H99.29C105.558 238.51 110.64 233.428 110.64 227.16V161.08C110.64 154.812 105.558 149.73 99.29 149.73Z" stroke="white" stroke-width="2" stroke-miterlimit="10"/>
      <path d="M53.13 137.36H85.53C86.6113 137.363 87.6475 137.793 88.4121 138.558C89.1767 139.322 89.6074 140.359 89.61 141.44V157.44C89.61 157.756 89.4846 158.058 89.2615 158.281C89.0383 158.505 88.7356 158.63 88.42 158.63H85.72C85.4044 158.63 85.1017 158.505 84.8785 158.281C84.6554 158.058 84.53 157.756 84.53 157.44V143.07C84.53 142.733 84.3962 142.41 84.158 142.172C83.9198 141.934 83.5968 141.8 83.26 141.8H55.4C55.0632 141.8 54.7401 141.934 54.502 142.172C54.2638 142.41 54.13 142.733 54.13 143.07V157.45C54.13 157.766 54.0046 158.068 53.7814 158.291C53.5583 158.515 53.2556 158.64 52.94 158.64H50.24C49.9244 158.64 49.6217 158.515 49.3985 158.291C49.1754 158.068 49.05 157.766 49.05 157.45V141.45C49.0553 140.368 49.4882 139.332 50.2544 138.567C51.0205 137.803 52.0578 137.373 53.14 137.37" fill="#A67EE5"/>
      <path d="M53.13 137.36H85.53C86.6113 137.363 87.6475 137.793 88.4121 138.558C89.1767 139.322 89.6074 140.359 89.61 141.44V157.44C89.61 157.756 89.4846 158.058 89.2615 158.281C89.0383 158.505 88.7356 158.63 88.42 158.63H85.72C85.4044 158.63 85.1017 158.505 84.8785 158.281C84.6554 158.058 84.53 157.756 84.53 157.44V143.07C84.53 142.733 84.3962 142.41 84.158 142.172C83.9198 141.934 83.5968 141.8 83.26 141.8H55.4C55.0632 141.8 54.7401 141.934 54.502 142.172C54.2638 142.41 54.13 142.733 54.13 143.07V157.45C54.13 157.766 54.0046 158.068 53.7814 158.291C53.5583 158.515 53.2556 158.64 52.94 158.64H50.24C49.9244 158.64 49.6217 158.515 49.3985 158.291C49.1754 158.068 49.05 157.766 49.05 157.45V141.45C49.0526 140.368 49.483 139.331 50.2473 138.564C51.0116 137.798 52.0478 137.365 53.13 137.36Z" stroke="white" stroke-width="2" stroke-miterlimit="10"/>
      <path d="M39.21 238.5H113.71C116.718 238.492 119.6 237.294 121.727 235.167C123.854 233.04 125.052 230.158 125.06 227.15V161.07C125.052 158.062 123.854 155.18 121.727 153.053C119.6 150.926 116.718 149.728 113.71 149.72H39.21C36.204 149.731 33.3242 150.93 31.1995 153.057C29.0749 155.183 27.8779 158.064 27.87 161.07V227.15C27.8805 230.157 29.0797 233.038 31.206 235.164C33.3322 237.29 36.213 238.489 39.22 238.5" fill="#A67EE5"/>
      <path d="M39.21 238.5H113.71C116.718 238.492 119.6 237.294 121.727 235.167C123.854 233.04 125.052 230.158 125.06 227.15V161.07C125.052 158.062 123.854 155.18 121.727 153.053C119.6 150.926 116.718 149.728 113.71 149.72H39.21C36.204 149.731 33.3242 150.93 31.1995 153.057C29.0749 155.183 27.8779 158.064 27.87 161.07V227.15C27.8805 230.155 29.0783 233.035 31.2024 235.161C33.3265 237.286 36.2048 238.487 39.21 238.5V238.5Z" stroke="white" stroke-width="2" stroke-miterlimit="10"/>
      <path d="M108.1 170.64H44.84" stroke="white" stroke-width="2" stroke-miterlimit="10" stroke-linecap="round"/>
      <path d="M108.1 194.12H44.84" stroke="white" stroke-width="2" stroke-miterlimit="10" stroke-linecap="round"/>
      <path d="M108.1 217.59H44.84" stroke="white" stroke-width="2" stroke-miterlimit="10" stroke-linecap="round"/>
      <path d="M21.99 171.89H22.66V216.35H21.99C21.059 216.347 20.1667 215.977 19.5074 215.32C18.8482 214.662 18.4753 213.771 18.47 212.84V175.41C18.47 174.948 18.5611 174.49 18.738 174.063C18.9149 173.636 19.1741 173.248 19.501 172.921C19.8279 172.594 20.2159 172.335 20.643 172.158C21.07 171.981 21.5278 171.89 21.99 171.89Z" fill="#A67EE5"/>
      <path d="M21.99 171.89H22.66V216.35H21.99C21.059 216.347 20.1667 215.977 19.5074 215.32C18.8482 214.662 18.4753 213.771 18.47 212.84V175.41C18.47 174.476 18.8409 173.581 19.501 172.921C20.1611 172.261 21.0565 171.89 21.99 171.89V171.89Z" stroke="white" stroke-width="2" stroke-miterlimit="10"/>
    </g>

    <g transform='translate(-70,-185)'>
      <path d="M69.34 137.08L13.75 57.25" stroke="white" stroke-width="2" stroke-linecap="round" stroke-linejoin="round"/>
      <path d="M69.34 137.08L50.8 57.25" stroke="white" stroke-width="2" stroke-linecap="round" stroke-linejoin="round"/>
      <path d="M87.86 57.25L69.34 137.08" stroke="white" stroke-width="2" stroke-linecap="round" stroke-linejoin="round"/>
      <path d="M124.92 57.25L69.34 137.08" stroke="white" stroke-width="2" stroke-linecap="round" stroke-linejoin="round"/>
      <path d="M69.33 1.65002C84.0604 1.66062 98.1841 7.51828 108.598 17.9361C119.012 28.3539 124.865 42.4797 124.87 57.21C124.87 50.45 116.57 44.96 106.34 44.96C96.11 44.96 88.03 50.31 87.82 56.96C87.82 57.04 87.82 57.13 87.82 57.22C87.82 50.46 79.52 44.97 69.29 44.97C59.06 44.97 50.75 50.46 50.75 57.22C50.75 57.13 50.75 57.05 50.75 56.96C50.53 50.32 42.33 44.96 32.23 44.96C22.13 44.96 13.71 50.45 13.71 57.21C13.7087 49.9095 15.1457 42.6802 17.9389 35.9351C20.7321 29.19 24.8268 23.0613 29.989 17.899C35.1513 12.7367 41.28 8.64207 48.0251 5.84888C54.7702 3.05568 61.9995 1.6187 69.3 1.62002L69.33 1.65002ZM69.3 -0.0399857C54.1282 -0.0135206 39.5859 6.02793 28.8615 16.7598C18.1372 27.4917 12.1059 42.0382 12.09 57.21C12.09 57.428 12.133 57.6439 12.2164 57.8453C12.2998 58.0467 12.4221 58.2297 12.5762 58.3838C12.7304 58.538 12.9134 58.6602 13.1148 58.7437C13.3162 58.8271 13.532 58.87 13.75 58.87C13.968 58.87 14.1839 58.8271 14.3853 58.7437C14.5867 58.6602 14.7697 58.538 14.9238 58.3838C15.078 58.2297 15.2002 58.0467 15.2837 57.8453C15.3671 57.6439 15.41 57.428 15.41 57.21C15.41 51.37 22.98 46.62 32.28 46.62C41.39 46.62 48.96 51.28 49.14 57V57.21C49.14 57.6503 49.3149 58.0725 49.6262 58.3838C49.9375 58.6951 50.3598 58.87 50.8 58.87C51.2403 58.87 51.6625 58.6951 51.9738 58.3838C52.2851 58.0725 52.46 57.6503 52.46 57.21C52.46 51.37 60.03 46.62 69.33 46.62C78.63 46.62 86.2 51.37 86.2 57.21C86.2 57.6503 86.3749 58.0725 86.6862 58.3838C86.9975 58.6951 87.4198 58.87 87.86 58.87C88.3003 58.87 88.7225 58.6951 89.0338 58.3838C89.3451 58.0725 89.52 57.6503 89.52 57.21V57C89.7 51.27 97.26 46.61 106.38 46.61C115.68 46.61 123.25 51.36 123.25 57.2C123.25 57.6403 123.425 58.0625 123.736 58.3738C124.048 58.6851 124.47 58.86 124.91 58.86C125.35 58.86 125.773 58.6851 126.084 58.3738C126.395 58.0625 126.57 57.6403 126.57 57.2C126.557 42.0239 120.524 27.4728 109.794 16.7398C99.0651 6.00681 84.5161 -0.0314538 69.34 -0.0499878" fill="white"/>
      <path d="M69.33 1.64999C79.25 1.64999 87.33 22.55 87.87 56.98C88.08 50.33 96.28 44.98 106.39 44.98C116.5 44.98 124.87 50.48 124.87 57.21C124.87 42.4666 119.013 28.3271 108.588 17.9019C98.1629 7.47678 84.0234 1.62 69.28 1.62" fill="#E81A5A"/>
      <path d="M69.32 1.65002C54.5827 1.65002 40.4488 7.50301 30.0261 17.922C19.6034 28.3409 13.7453 42.4727 13.74 57.21C13.74 50.45 22.04 44.96 32.26 44.96C42.48 44.96 50.56 50.31 50.78 56.96C51.3 22.53 59.39 1.64001 69.31 1.64001" fill="#FE6183"/>
      <path d="M69.33 1.64999C59.4 1.64999 51.33 22.55 50.79 56.97C50.79 57.06 50.79 57.14 50.79 57.23C50.79 50.47 59.09 44.98 69.32 44.98C79.55 44.98 87.87 50.48 87.87 57.21C87.87 57.12 87.87 57.04 87.87 56.95C87.36 22.52 79.27 1.62 69.35 1.62" fill="#F7396B"/>
    </g>

    <animateMotion id='moveSuitCase' dur='1.6s' fill='freeze' calcMode='linear' begin='translateClouds.begin + 1s'>
      <mpath href='#moveSuitcase'/>
    </animateMotion>

    <animateTransform
      attributeName='transform'
      type='scale'
      values='0, 0;  0.3, 0.3; 0.5,0.5; 0.7,0.7; 1,1'
      dur='1.6s'
      begin='moveSuitCase.begin + 0.2s'
      fill='freeze'
    />

    <animateTransform
      attributeName='transform'
      type='rotate'
      values='30; -30; 20; 18; -6.48; 0'
      keyTimes='0; .1; .4; .6; .8; 1'
      keySplines='0.33, 0, 0.67, 1;
                  0.33, 0, 0.67, 1;
                  0.33, 0, 0.67, 1;
                  0.33, 0, 0.67, 1;
                  0.17, 0, 0.83, 1;'
      dur='1.6s'
      additive='sum'
      begin='moveSuitCase.begin + 0.2s'
    />
  </g>

  <g id='leaf2'>
    <path d="M308.79 229.4C309.073 229.676 309.274 230.024 309.371 230.407C309.468 230.79 309.458 231.193 309.34 231.57C308.28 235 304.76 244.42 297.24 247.91C292.11 250.29 288.91 245.21 286.32 248.68C283.73 252.15 288.42 253.68 293.24 252.99C293.656 252.922 294.083 252.977 294.469 253.149C294.854 253.32 295.181 253.601 295.408 253.956C295.636 254.311 295.755 254.726 295.75 255.147C295.744 255.569 295.616 255.98 295.38 256.33C294.122 258.319 292.394 259.968 290.349 261.131C288.303 262.294 286.002 262.936 283.65 263C272.81 263.27 271.1 251.42 269.08 252.81C266.36 254.7 270.35 259.36 273.47 262.38C273.769 262.667 273.979 263.034 274.076 263.437C274.172 263.84 274.15 264.262 274.013 264.653C273.876 265.044 273.63 265.388 273.303 265.642C272.976 265.897 272.583 266.053 272.17 266.09C263.41 266.93 252.45 262.58 252.37 251.09C252.29 238.15 248.12 239.29 247.26 232.74C246.35 225.86 251.14 217.86 261 216.05C261.397 215.978 261.805 216.018 262.18 216.166C262.555 216.314 262.881 216.563 263.122 216.887C263.362 217.211 263.507 217.595 263.54 217.997C263.574 218.398 263.494 218.801 263.31 219.16C260.9 223.89 257.31 231.76 260.49 231.72C263.95 231.72 258.91 209.14 288.92 216.46C289.282 216.549 289.615 216.731 289.886 216.987C290.157 217.243 290.357 217.565 290.467 217.921C290.577 218.278 290.592 218.657 290.512 219.021C290.432 219.385 290.259 219.722 290.01 220L289.91 220.11C289.583 220.473 289.389 220.935 289.359 221.422C289.329 221.91 289.465 222.392 289.744 222.793C290.024 223.193 290.43 223.486 290.898 223.626C291.366 223.765 291.867 223.742 292.32 223.56C295.98 222.04 301.48 222.29 308.79 229.4Z" fill="#FE6183"/>
    <path d="M231 273.88C231 273.88 234.48 243.77 252.7 243.77" stroke="#FE6183" stroke-width="2" stroke-miterlimit="10"/>

    <animateTransform
      attributeName='transform'
      type='rotate'
      values='0 235 300; 3 235 300; -2 235 300; 2 235 300; -1 235 300; 0 235 300'
      keySplines='.19,.88,.68,.96;
                  .19,.88,.68,.96;
                  .19,.88,.68,.96;
                  .19,.88,.68,.96;
                  .19,.88,.68,.96'
      repeatCount='indefinite'
      dur='3.3s'
    />
  </g>

  <path d="M27 275H305" stroke="white" stroke-width="2">
    <animate
      attributeName='d'
      to='M133 275H270'
      dur='0.3s'
      begin='3.5s'
      fill='freeze'
    />
  </path>

</svg>
